<svg xmlns='http://www.w3.org/2000/svg' viewBox='23 700 1152 112' width='1152' height='112'><g id='red-white_2_'>
		<g>
			<polygon style="fill:#939598;" points="23.73,765.088 68.026,812.262 112.328,765.088 112.328,700.273 23.73,700.273 			"/>
			<polygon style="fill:#939598;" points="112.328,765.088 156.624,812.262 200.926,765.088 200.926,700.273 112.328,700.273 			"/>
			<polygon style="fill:#939598;" points="200.926,765.088 245.222,812.262 289.524,765.088 289.524,700.273 200.926,700.273 			"/>
			<polygon style="fill:#939598;" points="289.524,765.088 333.82,812.262 378.122,765.088 378.122,700.273 289.524,700.273 			"/>
			<polygon style="fill:#939598;" points="378.122,765.088 422.418,812.262 466.72,765.088 466.72,700.273 378.122,700.273 			"/>
			<polygon style="fill:#939598;" points="466.72,765.088 511.016,812.262 555.318,765.088 555.318,700.273 466.72,700.273 			"/>
			<polygon style="fill:#939598;" points="555.318,765.088 599.614,812.262 643.915,765.088 643.915,700.273 555.318,700.273 			"/>
			<polygon style="fill:#939598;" points="643.915,765.088 688.212,812.262 732.513,765.088 732.513,700.273 643.915,700.273 			"/>
			<polygon style="fill:#939598;" points="732.513,765.088 776.809,812.262 821.111,765.088 821.111,700.273 732.513,700.273 			"/>
			<polygon style="fill:#939598;" points="821.111,765.088 865.407,812.262 909.709,765.088 909.709,700.273 821.111,700.273 			"/>
			<polygon style="fill:#939598;" points="909.709,765.088 954.005,812.262 998.307,765.088 998.307,700.273 909.709,700.273 			"/>
			<polygon style="fill:#939598;" points="998.307,765.088 1042.603,812.262 1086.905,765.088 1086.905,700.273 998.307,700.273 			
				"/>
			<polygon style="fill:#939598;" points="1086.905,765.088 1131.201,812.262 1175.503,765.088 1175.503,700.273 1086.905,700.273 
							"/>
		</g>
		<g>
			
				<linearGradient id="SVGID_00000085942919203367548770000016725314927268225214_" gradientUnits="userSpaceOnUse" x1="68.0294" y1="807.1786" x2="68.0294" y2="695.1892">
				<stop  offset="0" style="stop-color:#ED1C24"/>
				<stop  offset="0.8" style="stop-color:#8F1722"/>
				<stop  offset="1" style="stop-color:#ED1C24"/>
			</linearGradient>
			<polygon style="fill:url(#SVGID_00000085942919203367548770000016725314927268225214_);" points="23.73,760.004 68.026,807.179 
				112.328,760.004 112.328,695.189 23.73,695.189 			"/>
			
				<linearGradient id="SVGID_00000121993975334653189560000012008667173290647978_" gradientUnits="userSpaceOnUse" x1="156.6272" y1="807.1786" x2="156.6272" y2="695.1892">
				<stop  offset="0" style="stop-color:#FFFFFF"/>
				<stop  offset="0.8" style="stop-color:#BCBEC0"/>
				<stop  offset="0.9939" style="stop-color:#FFFFFF"/>
			</linearGradient>
			<polygon style="fill:url(#SVGID_00000121993975334653189560000012008667173290647978_);" points="112.328,760.004 
				156.624,807.179 200.926,760.004 200.926,695.189 112.328,695.189 			"/>
			
				<linearGradient id="SVGID_00000145021390282121285850000009798550602588979855_" gradientUnits="userSpaceOnUse" x1="245.2251" y1="807.1786" x2="245.2251" y2="695.1892">
				<stop  offset="0" style="stop-color:#ED1C24"/>
				<stop  offset="0.8" style="stop-color:#8F1722"/>
				<stop  offset="1" style="stop-color:#ED1C24"/>
			</linearGradient>
			<polygon style="fill:url(#SVGID_00000145021390282121285850000009798550602588979855_);" points="200.926,760.004 
				245.222,807.179 289.524,760.004 289.524,695.189 200.926,695.189 			"/>
			
				<linearGradient id="SVGID_00000040557392961227149770000018400064614302181795_" gradientUnits="userSpaceOnUse" x1="333.8229" y1="807.1786" x2="333.8229" y2="695.1892">
				<stop  offset="0" style="stop-color:#FFFFFF"/>
				<stop  offset="0.8" style="stop-color:#BCBEC0"/>
				<stop  offset="0.9939" style="stop-color:#FFFFFF"/>
			</linearGradient>
			<polygon style="fill:url(#SVGID_00000040557392961227149770000018400064614302181795_);" points="289.524,760.004 
				333.82,807.179 378.122,760.004 378.122,695.189 289.524,695.189 			"/>
			
				<linearGradient id="SVGID_00000093882753683203733170000010180389761915317383_" gradientUnits="userSpaceOnUse" x1="422.4208" y1="807.1786" x2="422.4208" y2="695.1892">
				<stop  offset="0" style="stop-color:#ED1C24"/>
				<stop  offset="0.8" style="stop-color:#8F1722"/>
				<stop  offset="1" style="stop-color:#ED1C24"/>
			</linearGradient>
			<polygon style="fill:url(#SVGID_00000093882753683203733170000010180389761915317383_);" points="378.122,760.004 
				422.418,807.179 466.72,760.004 466.72,695.189 378.122,695.189 			"/>
			
				<linearGradient id="SVGID_00000150083930352712467530000005832636305939029161_" gradientUnits="userSpaceOnUse" x1="511.0187" y1="807.1786" x2="511.0187" y2="695.1892">
				<stop  offset="0" style="stop-color:#FFFFFF"/>
				<stop  offset="0.8" style="stop-color:#BCBEC0"/>
				<stop  offset="0.9939" style="stop-color:#FFFFFF"/>
			</linearGradient>
			<polygon style="fill:url(#SVGID_00000150083930352712467530000005832636305939029161_);" points="466.72,760.004 
				511.016,807.179 555.318,760.004 555.318,695.189 466.72,695.189 			"/>
			
				<linearGradient id="SVGID_00000018919657389366096810000017954412526509963652_" gradientUnits="userSpaceOnUse" x1="599.6165" y1="807.1786" x2="599.6165" y2="695.1892">
				<stop  offset="0" style="stop-color:#ED1C24"/>
				<stop  offset="0.8" style="stop-color:#8F1722"/>
				<stop  offset="1" style="stop-color:#ED1C24"/>
			</linearGradient>
			<polygon style="fill:url(#SVGID_00000018919657389366096810000017954412526509963652_);" points="555.318,760.004 
				599.614,807.179 643.915,760.004 643.915,695.189 555.318,695.189 			"/>
			
				<linearGradient id="SVGID_00000124121931987069773080000013368737267516043401_" gradientUnits="userSpaceOnUse" x1="688.2144" y1="807.1786" x2="688.2144" y2="695.1892">
				<stop  offset="0" style="stop-color:#FFFFFF"/>
				<stop  offset="0.8" style="stop-color:#BCBEC0"/>
				<stop  offset="0.9939" style="stop-color:#FFFFFF"/>
			</linearGradient>
			<polygon style="fill:url(#SVGID_00000124121931987069773080000013368737267516043401_);" points="643.915,760.004 
				688.211,807.179 732.513,760.004 732.513,695.189 643.915,695.189 			"/>
			
				<linearGradient id="SVGID_00000087400512781029776310000002083383195245951167_" gradientUnits="userSpaceOnUse" x1="776.8123" y1="807.1786" x2="776.8123" y2="695.1892">
				<stop  offset="0" style="stop-color:#ED1C24"/>
				<stop  offset="0.8" style="stop-color:#8F1722"/>
				<stop  offset="1" style="stop-color:#ED1C24"/>
			</linearGradient>
			<polygon style="fill:url(#SVGID_00000087400512781029776310000002083383195245951167_);" points="732.513,760.004 
				776.809,807.179 821.111,760.004 821.111,695.189 732.513,695.189 			"/>
			
				<linearGradient id="SVGID_00000129205307881315591760000005013164767819721612_" gradientUnits="userSpaceOnUse" x1="865.4102" y1="807.1786" x2="865.4102" y2="695.1892">
				<stop  offset="0" style="stop-color:#FFFFFF"/>
				<stop  offset="0.8" style="stop-color:#BCBEC0"/>
				<stop  offset="0.9939" style="stop-color:#FFFFFF"/>
			</linearGradient>
			<polygon style="fill:url(#SVGID_00000129205307881315591760000005013164767819721612_);" points="821.111,760.004 
				865.407,807.179 909.709,760.004 909.709,695.189 821.111,695.189 			"/>
			
				<linearGradient id="SVGID_00000155104450583069148710000002077349177965145231_" gradientUnits="userSpaceOnUse" x1="954.0081" y1="807.1786" x2="954.0081" y2="695.1892">
				<stop  offset="0" style="stop-color:#ED1C24"/>
				<stop  offset="0.8" style="stop-color:#8F1722"/>
				<stop  offset="1" style="stop-color:#ED1C24"/>
			</linearGradient>
			<polygon style="fill:url(#SVGID_00000155104450583069148710000002077349177965145231_);" points="909.709,760.004 
				954.005,807.179 998.307,760.004 998.307,695.189 909.709,695.189 			"/>
			
				<linearGradient id="SVGID_00000147921689532218239440000011058121294739255983_" gradientUnits="userSpaceOnUse" x1="1042.6058" y1="807.1786" x2="1042.6058" y2="695.1892">
				<stop  offset="0" style="stop-color:#FFFFFF"/>
				<stop  offset="0.8" style="stop-color:#BCBEC0"/>
				<stop  offset="0.9939" style="stop-color:#FFFFFF"/>
			</linearGradient>
			<polygon style="fill:url(#SVGID_00000147921689532218239440000011058121294739255983_);" points="998.307,760.004 
				1042.603,807.179 1086.905,760.004 1086.905,695.189 998.307,695.189 			"/>
			
				<linearGradient id="SVGID_00000065769659269610086790000012720402714318016926_" gradientUnits="userSpaceOnUse" x1="1131.2037" y1="807.1786" x2="1131.2037" y2="695.1892">
				<stop  offset="0" style="stop-color:#ED1C24"/>
				<stop  offset="0.8" style="stop-color:#8F1722"/>
				<stop  offset="1" style="stop-color:#ED1C24"/>
			</linearGradient>
			<polygon style="fill:url(#SVGID_00000065769659269610086790000012720402714318016926_);" points="1086.905,760.004 
				1131.201,807.179 1175.503,760.004 1175.503,695.189 1086.905,695.189 			"/>
		</g></g></svg>

