<?xml version="1.0" encoding="utf-8"?>
<!-- Generator: Adobe Illustrator 27.5.0, SVG Export Plug-In . SVG Version: 6.00 Build 0)  -->
<svg version="1.1" xmlns="http://www.w3.org/2000/svg" xmlns:xlink="http://www.w3.org/1999/xlink" x="0px" y="0px"
	 viewBox="0 0 2200 2200" style="enable-background:new 0 0 2200 2200;" xml:space="preserve">
<g id="background">
	<rect y="0" style="fill:#FFFFFF;" width="2200" height="2200"/>
</g>
<g id="Objects">
	<g>
		<path d="M1021.211,1536.707c-19.197,137.361-101.854,264.544-219.601,337.85c-117.747,73.314-268.351,91.376-400.09,47.985
			c56.873-189.161,169.886-361.055,321.016-488.253c-107.407,54.171-192.026,146.195-255.656,248.281
			c-63.63,102.086-108.071,214.729-152.156,326.645c-41.854-6.533-61.53-33.885-61.53-33.885
			c1.938-17.344,34.711-86.179,67.939-151.346c-73.082-103.476-21.29-259.81,73.043-346.051
			c72.711-66.48,195.315-103.314,285.617-142.712c90.302-39.391,182.234-93.862,222.821-183.632
			C995.766,1254.371,1040.4,1399.338,1021.211,1536.707z"/>
	</g>
	<path d="M1223.625,2021.567c-0.632,0-1.27-0.048-1.911-0.148c-46.426-7.246-68.726-37.587-69.653-38.875
		c-1.786-2.484-2.587-5.544-2.248-8.585c2.264-20.252,36.332-90.837,65.904-149.085c-32.448-50.045-40.966-114.815-23.935-183.357
		c16.056-64.615,53.582-127.561,102.956-172.699c57.146-52.249,144.099-86.68,220.817-117.058
		c24.159-9.566,46.978-18.602,68.195-27.859c52.587-22.939,94.305-46.311,127.541-71.453
		c41.995-31.768,71.096-66.423,88.965-105.946c1.715-3.794,5.225-6.468,9.339-7.114c4.107-0.644,8.275,0.823,11.07,3.908
		c46.91,51.76,82.899,115.472,104.077,184.248c21.178,68.772,27.264,141.691,17.598,210.872
		c-9.668,69.18-35.506,137.635-74.721,197.968c-39.217,60.337-91.288,111.743-150.585,148.659
		c-59.298,36.921-128.406,60.966-199.855,69.535c-71.444,8.571-144.282,1.548-210.627-20.304c-6.48-2.134-10.002-9.117-7.868-15.596
		c2.134-6.48,9.119-10.004,15.596-7.868c62.932,20.728,132.075,27.38,199.957,19.24c67.881-8.141,133.492-30.956,189.741-65.978
		c56.246-35.018,105.669-83.827,142.929-141.151c37.256-57.321,61.797-122.303,70.968-187.924
		c9.166-65.623,3.377-134.845-16.743-200.184c-18.281-59.368-48.147-114.729-86.829-161.18
		c-49.197,89.838-148.471,141.415-220.675,172.911c-21.605,9.426-44.616,18.538-68.978,28.184
		c-74.739,29.594-159.448,63.138-213.243,112.322c-45.875,41.939-80.737,100.411-95.65,160.425
		c-15.99,64.347-7.338,124.502,24.36,169.384c2.647,3.747,2.999,8.651,0.914,12.737c-41.995,82.363-61.013,126.555-65.593,142.351
		c5.743,6.003,18.985,17.474,40.496,23.077c42.464-107.751,86.817-218.646,149.359-318.987
		c34.193-54.859,72.265-103.412,113.159-144.309c45.667-45.671,95.265-82.164,147.417-108.467
		c6.087-3.073,13.518-0.625,16.591,5.467c3.072,6.091,0.625,13.518-5.467,16.591c-49.802,25.118-97.265,60.067-141.072,103.877
		c-39.566,39.571-76.462,86.642-109.663,139.909c-63.22,101.429-107.919,214.902-151.147,324.639
		C1233.231,2018.517,1228.631,2021.567,1223.625,2021.567z"/>
	<g>
		<path style="fill:#5FA53A;" d="M1021.211,575.901c-19.197,137.361-101.854,264.544-219.601,337.85
			c-117.747,73.314-268.351,91.376-400.09,47.985c56.873-189.161,169.886-361.055,321.016-488.253
			c-107.407,54.171-192.026,146.195-255.656,248.281s-108.071,214.729-152.156,326.645c-41.854-6.533-61.53-33.885-61.53-33.885
			c1.938-17.344,34.711-86.179,67.939-151.346c-73.082-103.476-21.29-259.81,73.043-346.051
			c72.711-66.48,195.315-103.314,285.617-142.712c90.302-39.39,182.234-93.862,222.821-183.632
			C995.766,293.565,1040.4,438.532,1021.211,575.901z"/>
	</g>
	<path style="fill:#5FA53A;" d="M1223.625,1060.762c-0.632,0-1.27-0.048-1.911-0.148c-46.426-7.247-68.726-37.587-69.653-38.875
		c-1.786-2.484-2.587-5.544-2.248-8.585c2.264-20.252,36.332-90.837,65.904-149.085c-32.448-50.045-40.966-114.815-23.935-183.357
		c16.056-64.615,53.582-127.561,102.956-172.699c57.146-52.249,144.099-86.68,220.817-117.058
		c24.159-9.566,46.978-18.602,68.195-27.859c52.587-22.939,94.305-46.311,127.541-71.453
		c41.995-31.768,71.096-66.423,88.965-105.946c1.715-3.794,5.225-6.468,9.339-7.114c4.107-0.644,8.275,0.823,11.07,3.908
		c46.91,51.76,82.899,115.472,104.077,184.248c21.178,68.772,27.264,141.691,17.598,210.872
		c-9.668,69.18-35.506,137.635-74.721,197.968c-39.217,60.337-91.288,111.743-150.585,148.659
		c-59.298,36.921-128.406,60.966-199.855,69.535c-71.444,8.571-144.282,1.548-210.627-20.304c-6.48-2.134-10.002-9.117-7.868-15.596
		c2.134-6.48,9.119-10.004,15.596-7.868c62.932,20.728,132.075,27.38,199.957,19.24c67.881-8.142,133.492-30.956,189.741-65.978
		c56.246-35.018,105.669-83.827,142.929-141.151c37.256-57.321,61.797-122.303,70.968-187.924
		c9.166-65.623,3.377-134.845-16.743-200.184c-18.281-59.368-48.147-114.729-86.829-161.18
		c-49.197,89.838-148.471,141.415-220.675,172.91c-21.605,9.426-44.616,18.538-68.978,28.184
		c-74.739,29.595-159.448,63.138-213.243,112.322c-45.875,41.939-80.737,100.411-95.65,160.425
		c-15.99,64.347-7.338,124.502,24.36,169.384c2.647,3.747,2.999,8.651,0.914,12.737c-41.995,82.363-61.013,126.555-65.593,142.351
		c5.743,6.003,18.985,17.474,40.496,23.077c42.464-107.751,86.817-218.646,149.359-318.987
		c34.193-54.859,72.265-103.412,113.159-144.309c45.667-45.671,95.265-82.164,147.417-108.467
		c6.087-3.073,13.518-0.625,16.591,5.467c3.072,6.091,0.625,13.518-5.467,16.591c-49.802,25.118-97.265,60.067-141.072,103.877
		c-39.566,39.571-76.462,86.643-109.663,139.909c-63.22,101.429-107.919,214.902-151.147,324.639
		C1233.231,1057.712,1228.631,1060.762,1223.625,1060.762z"/>
</g>
</svg>
