<?xml version="1.0" encoding="utf-8"?>
<!-- Generator: Adobe Illustrator 27.5.0, SVG Export Plug-In . SVG Version: 6.00 Build 0)  -->
<svg version="1.1" xmlns="http://www.w3.org/2000/svg" xmlns:xlink="http://www.w3.org/1999/xlink" x="0px" y="0px"
	 viewBox="0 0 500 500" style="enable-background:new 0 0 500 500;" xml:space="preserve">
<g id="BACKGROUND">
	<rect style="fill:#FFFFFF;" width="500" height="500"/>
</g>
<g id="OBJECTS">
	<g>
		<g>
			<path style="fill:#84993E;" d="M296.268,155.682c-19.106,1.682-48.59-68.945,0-126.072
				C296.268,29.611,348.469,151.086,296.268,155.682z"/>
		</g>
		<g>
			<path style="fill:#5A7036;" d="M299.688,155.162c46.388-9.621-3.421-125.552-3.421-125.552S287.344,92.901,299.688,155.162z"/>
		</g>
		<g>
			<path style="fill:#B7CB71;" d="M305.46,170.524c-0.419,0-0.816-0.253-0.979-0.667c-17.616-44.694-10.321-127.365-10.246-128.194
				c0.053-0.579,0.552-1,1.144-0.953c0.579,0.053,1.005,0.565,0.953,1.144c-0.075,0.825-7.325,83.003,10.109,127.232
				c0.213,0.541-0.052,1.151-0.594,1.365C305.719,170.501,305.588,170.524,305.46,170.524z"/>
		</g>
		<g>
			<path style="fill:#B7CB71;" d="M292.984,70.716c-0.245,0-0.49-0.084-0.69-0.257c-5.084-4.406-8.378-14.166-8.516-14.579
				c-0.184-0.552,0.114-1.147,0.665-1.331c0.557-0.185,1.147,0.114,1.331,0.665c0.033,0.096,3.252,9.629,7.899,13.654
				c0.439,0.38,0.486,1.045,0.106,1.485C293.571,70.593,293.279,70.716,292.984,70.716z"/>
		</g>
		<g>
			<path style="fill:#B7CB71;" d="M292.983,96.982c-0.211,0-0.422-0.063-0.607-0.193c-7.958-5.637-14.139-15.317-14.398-15.726
				c-0.311-0.491-0.165-1.141,0.326-1.452c0.492-0.311,1.142-0.165,1.452,0.326c0.062,0.097,6.225,9.742,13.837,15.134
				c0.474,0.336,0.586,0.993,0.251,1.468C293.638,96.828,293.313,96.982,292.983,96.982z"/>
		</g>
		<g>
			<path style="fill:#B7CB71;" d="M294.627,125.873c-0.073,0-0.147-0.007-0.221-0.024c-9.406-2.014-19.806-12.974-20.245-13.439
				c-0.398-0.424-0.378-1.089,0.045-1.487c0.423-0.4,1.088-0.38,1.488,0.044c0.103,0.109,10.391,10.948,19.152,12.825
				c0.568,0.121,0.931,0.68,0.809,1.249C295.549,125.535,295.113,125.873,294.627,125.873z"/>
		</g>
		<g>
			<path style="fill:#B7CB71;" d="M298.562,148.536c-5.934,0-13.844-7.526-14.185-7.853c-0.419-0.403-0.433-1.069-0.031-1.488
				c0.403-0.418,1.068-0.432,1.488-0.031c2.192,2.103,8.785,7.494,12.999,7.26c0.568-0.023,1.078,0.409,1.112,0.989
				c0.034,0.581-0.408,1.078-0.989,1.112C298.825,148.533,298.693,148.536,298.562,148.536z"/>
		</g>
		<g>
			<path style="fill:#B7CB71;" d="M297.581,138.349c-0.379,0-0.745-0.205-0.933-0.564c-0.27-0.515-0.071-1.151,0.444-1.42
				c6.621-3.467,15.99-15.043,16.085-15.159c0.365-0.451,1.027-0.525,1.479-0.159c0.453,0.364,0.524,1.027,0.159,1.479
				c-0.394,0.49-9.739,12.032-16.747,15.703C297.912,138.311,297.746,138.349,297.581,138.349z"/>
		</g>
		<g>
			<path style="fill:#B7CB71;" d="M294.956,112.084c-0.312,0-0.622-0.139-0.829-0.404c-0.359-0.457-0.277-1.119,0.18-1.477
				c7.359-5.76,15.497-16.131,15.578-16.235c0.357-0.459,1.017-0.54,1.477-0.182c0.458,0.358,0.54,1.02,0.182,1.477
				c-0.338,0.434-8.375,10.676-15.94,16.597C295.411,112.011,295.182,112.084,294.956,112.084z"/>
		</g>
		<g>
			<path style="fill:#B7CB71;" d="M294.299,84.506c-0.344,0-0.68-0.169-0.883-0.478c-0.318-0.486-0.18-1.139,0.307-1.456
				c7.311-4.769,12.505-11.202,12.558-11.267c0.363-0.451,1.024-0.526,1.479-0.163c0.453,0.363,0.527,1.025,0.164,1.479
				c-0.219,0.273-5.447,6.754-13.052,11.715C294.696,84.451,294.496,84.506,294.299,84.506z"/>
		</g>
		<g>
			<path style="fill:#B7CB71;" d="M294.627,57.584c-0.302,0-0.601-0.129-0.81-0.379c-0.372-0.446-0.311-1.11,0.136-1.482
				c1.894-1.577,5.772-5.773,5.811-5.815c0.394-0.426,1.061-0.453,1.487-0.059c0.427,0.394,0.453,1.06,0.059,1.487
				c-0.162,0.176-4.009,4.337-6.01,6.004C295.103,57.504,294.864,57.584,294.627,57.584z"/>
		</g>
	</g>
	<g>
		<g>
			<path style="fill:#B7CB71;" d="M266.582,468.013c-0.256,0-0.512-0.092-0.714-0.28c-0.427-0.395-0.453-1.061-0.059-1.487
				c10.62-11.49,19.054-26.389,25.066-44.282c5.684-16.914,8.671-34.911,10.841-50.286c0.081-0.575,0.611-0.977,1.189-0.895
				c0.576,0.081,0.976,0.613,0.895,1.189c-2.185,15.47-5.191,33.587-10.93,50.662c-6.109,18.178-14.693,33.332-25.516,45.041
				C267.147,467.899,266.864,468.013,266.582,468.013z"/>
		</g>
		<g>
			<path style="fill:#84993E;" d="M301.603,379.556c0,0-17.14-19.439,5.435-36.996C307.038,342.56,326.059,364.089,301.603,379.556z
				"/>
		</g>
		<g>
			<path style="fill:#5A7036;" d="M307.038,342.559c0,0-1.672,26.755-5.435,36.997C326.059,364.089,307.038,342.559,307.038,342.559
				z"/>
		</g>
		<g>
			<path style="fill:#84993E;" d="M298.321,395.244c0,0-21.612-4.992-14.646-28.456
				C283.674,366.788,307.636,372.297,298.321,395.244z"/>
		</g>
		<g>
			<path style="fill:#5A7036;" d="M283.674,366.788c0,0,12.163,19.454,14.646,28.456
				C307.637,372.297,283.674,366.788,283.674,366.788z"/>
		</g>
		<g>
			<path style="fill:#84993E;" d="M292.645,419.17c0,0-24.035-2.957-19.146-29.228C273.499,389.942,300.144,393.193,292.645,419.17z
				"/>
		</g>
		<g>
			<path style="fill:#5A7036;" d="M273.499,389.942c0,0,15.424,19.736,19.146,29.228
				C300.144,393.193,273.499,389.942,273.499,389.942z"/>
		</g>
		<g>
			<path style="fill:#84993E;" d="M282.776,443.578c0,0-25.49-4.68-18.605-32.437C264.171,411.142,292.432,416.301,282.776,443.578z
				"/>
		</g>
		<g>
			<path style="fill:#5A7036;" d="M264.171,411.142c0,0,15.229,22.061,18.605,32.437
				C292.432,416.301,264.171,411.142,264.171,411.142z"/>
		</g>
		<g>
			<path style="fill:#84993E;" d="M269.423,463.464c0,0-19.272-8.828-8.24-29.455C261.183,434.009,282.556,443.774,269.423,463.464z
				"/>
		</g>
		<g>
			<path style="fill:#5A7036;" d="M261.183,434.009c0,0,7.646,20.55,8.24,29.455C282.556,443.774,261.183,434.009,261.183,434.009z"
				/>
		</g>
		<g>
			<path style="fill:#84993E;" d="M298.008,400.423c0,0,6.147-25.176,33.459-16.695C331.467,383.728,324.68,411.642,298.008,400.423
				z"/>
		</g>
		<g>
			<path style="fill:#5A7036;" d="M331.467,383.728c0,0-22.906,13.926-33.459,16.695
				C324.68,411.643,331.467,383.728,331.467,383.728z"/>
		</g>
		<g>
			<path style="fill:#84993E;" d="M292.091,422.223c0,0,13.593-20.41,35.15-4.052C327.241,418.17,312.195,440.81,292.091,422.223z"
				/>
		</g>
		<g>
			<path style="fill:#5A7036;" d="M327.241,418.17c0,0-24.869,4.995-35.15,4.052C312.195,440.81,327.241,418.17,327.241,418.17z"/>
		</g>
		<g>
			<path style="fill:#84993E;" d="M285.023,439.349c0,0,12.369-18.982,32.436-4.069C317.459,435.28,303.769,456.335,285.023,439.349
				z"/>
		</g>
		<g>
			<path style="fill:#5A7036;" d="M317.459,435.28c0,0-22.929,4.845-32.436,4.069C303.769,456.335,317.459,435.28,317.459,435.28z"
				/>
		</g>
		<g>
			<path style="fill:#84993E;" d="M274.213,458.581c0,0,9.949-16.149,27.06-4.095C301.273,454.487,290.262,472.399,274.213,458.581z
				"/>
		</g>
		<g>
			<path style="fill:#5A7036;" d="M301.273,454.487c0,0-19.087,4.542-27.06,4.095C290.262,472.399,301.273,454.487,301.273,454.487z
				"/>
		</g>
	</g>
	<g>
		<g>
			<path style="fill:#B7CB71;" d="M441.95,306.51c-0.227,0-0.457-0.074-0.651-0.225c-23.525-18.527-37.893-47.461-38.434-77.4
				c-0.01-0.581,0.452-1.061,1.034-1.071c0.006,0,0.012,0,0.019,0c0.572,0,1.042,0.458,1.052,1.034
				c0.528,29.314,14.597,57.644,37.632,75.783c0.456,0.36,0.534,1.021,0.175,1.479C442.57,306.372,442.262,306.51,441.95,306.51z"/>
		</g>
		<g>
			<path style="fill:#84993E;" d="M404.817,238.387c0,0-17.072-34.363-4.377-38.741
				C413.134,195.269,409.195,226.787,404.817,238.387z"/>
		</g>
		<g>
			<path style="fill:#5A7036;" d="M401.879,199.309c-1.158,13.629,2.938,39.078,2.938,39.078
				C409.019,227.252,412.808,197.785,401.879,199.309z"/>
		</g>
		<g>
			<path style="fill:#84993E;" d="M407.996,257.254c0,0-1.579-34.381,10.424-33.381
				C430.422,224.873,415.786,249.316,407.996,257.254z"/>
		</g>
		<g>
			<path style="fill:#5A7036;" d="M419.723,224.117c-5.882,10.767-11.727,33.137-11.727,33.137
				C415.473,249.635,429.244,226.821,419.723,224.117z"/>
		</g>
		<g>
			<path style="fill:#84993E;" d="M406.713,249.378c0,0-14.557-29.58-24.167-23.196C372.936,232.565,396.51,246.316,406.713,249.378
				z"/>
		</g>
		<g>
			<path style="fill:#5A7036;" d="M381.565,226.988c9.91,6.318,25.148,22.39,25.148,22.39
				C396.919,246.438,374.824,233.655,381.565,226.988z"/>
		</g>
		<g>
			<path style="fill:#84993E;" d="M413.403,269.613c0,0-19.654-28.857-28.783-20.737
				C375.489,256.997,402.249,267.917,413.403,269.613z"/>
		</g>
		<g>
			<path style="fill:#5A7036;" d="M383.71,249.868c11.329,5.155,29.692,19.745,29.692,19.745
				C402.696,267.985,377.631,257.859,383.71,249.868z"/>
		</g>
		<g>
			<path style="fill:#84993E;" d="M422.715,285.693c0,0-28.913-19.572-34.403-8.656C382.821,287.953,411.722,288.23,422.715,285.693
				z"/>
		</g>
		<g>
			<path style="fill:#5A7036;" d="M387.833,278.294c12.431,0.612,34.882,7.399,34.882,7.399
				C412.163,288.129,385.13,287.964,387.833,278.294z"/>
		</g>
		<g>
			<path style="fill:#84993E;" d="M435.007,299.134c0,0-25.811-12.263-28.905-2.753C403.009,305.89,426.426,302.545,435.007,299.134
				z"/>
		</g>
		<g>
			<path style="fill:#5A7036;" d="M405.87,297.456c10.133-1.04,29.137,1.677,29.137,1.677
				C426.77,302.408,404.878,305.615,405.87,297.456z"/>
		</g>
		<g>
			<path style="fill:#84993E;" d="M418.164,278.201c0,0-5.018-35.867,7.655-35.993C438.493,242.082,425.549,269.123,418.164,278.201
				z"/>
		</g>
		<g>
			<path style="fill:#5A7036;" d="M427.209,242.336c-5.109,11.856-9.045,35.865-9.045,35.865
				C425.253,269.487,437.45,244.237,427.209,242.336z"/>
		</g>
		<g>
			<path style="fill:#84993E;" d="M430.892,296.026c0,0-9.695-30.309,1.26-32.309C443.108,261.718,435.933,287.064,430.892,296.026z
				"/>
		</g>
		<g>
			<path style="fill:#5A7036;" d="M433.374,263.621c-2.656,11.029-2.482,32.405-2.482,32.405
				C435.731,287.423,442.525,263.74,433.374,263.621z"/>
		</g>
	</g>
	<g>
		<g>
			<path style="fill:#84993E;" d="M87.715,456.981c-37.989,4.274-48.232-31.847-48.232-31.847s2.426-1.469,6.038,0.517
				c0,0-6.338-12.044-4.422-18.04c0,0,3.959-0.246,6.215,2.091c0,0-5.403-16.135-2.043-21.696c0,0,4.441,0.497,6.719,3.031
				c0,0-2.729-11.852,1.267-17.085c0,0,4.028,2.138,5.671,4.345c0,0-3.659-20.119,16.423-34.737c0,0,19.177,10.998,20.976,30.529
				c0,0,1.767-3.787,4.412-5.081c0,0,5.917,8.304,6.013,14.472c0,0,3.167-3.745,5.748-3.836c0,0,4.697,11.63,3.57,19.332
				c0,0,3.89-2.63,6.166-1.89c0,0,1.218,10.826-2.01,17.568c0,0,3.41-1.58,6.058-1.08
				C126.284,413.573,130.822,452.13,87.715,456.981z"/>
		</g>
		<g>
			<path style="fill:#5A7036;" d="M58.929,378.297c-1.644-2.207-5.671-4.345-5.671-4.345c-3.996,5.233-1.267,17.085-1.267,17.085
				c-2.278-2.534-6.719-3.031-6.719-3.031c-3.361,5.561,2.042,21.696,2.042,21.696c-2.256-2.337-6.215-2.091-6.215-2.091
				c-1.917,5.996,4.422,18.04,4.422,18.04c-3.612-1.986-6.038-0.517-6.038-0.517s10.243,36.122,48.232,31.847
				c0.897-0.101,1.766-0.222,2.622-0.351c-14.724-48.77-14.985-113.07-14.985-113.07C55.27,358.178,58.929,378.297,58.929,378.297z"
				/>
		</g>
		<g>
			<path style="fill:#B7CB71;" d="M93.704,467.013c-0.432,0-0.838-0.268-0.991-0.699C75.159,417.162,74.956,354.3,74.956,353.671
				c0-0.582,0.471-1.052,1.052-1.052c0.581,0,1.052,0.471,1.052,1.052c0,0.626,0.205,63.132,17.635,111.936
				c0.195,0.547-0.09,1.149-0.637,1.344C93.941,466.993,93.822,467.013,93.704,467.013z"/>
		</g>
		<g>
			<path style="fill:#B7CB71;" d="M76.33,379.819c-0.235,0-0.47-0.078-0.663-0.235c-5.293-4.3-9.463-14.15-9.638-14.567
				c-0.225-0.535,0.028-1.152,0.564-1.377c0.537-0.224,1.152,0.028,1.378,0.563c0.039,0.092,3.78,8.927,8.368,13.176
				c1.718-1.502,6.37-5.856,9.364-11.343c0.279-0.511,0.917-0.698,1.428-0.42c0.51,0.279,0.698,0.918,0.42,1.427
				c-3.918,7.183-10.293,12.329-10.562,12.545C76.795,379.742,76.563,379.819,76.33,379.819z"/>
		</g>
		<g>
			<path style="fill:#B7CB71;" d="M79.869,406.846c-0.169,0-0.34-0.041-0.496-0.124c-9.077-4.863-21.03-18.639-21.535-19.223
				c-0.38-0.44-0.331-1.104,0.108-1.484c0.44-0.381,1.104-0.332,1.485,0.109c0.118,0.137,11.597,13.365,20.263,18.368
				c2.348-2.345,11.659-12.077,16.583-23.564c0.228-0.535,0.846-0.785,1.382-0.553c0.534,0.229,0.782,0.848,0.552,1.381
				c-5.811,13.559-17.14,24.351-17.619,24.803C80.392,406.747,80.132,406.846,79.869,406.846z"/>
		</g>
		<g>
			<path style="fill:#B7CB71;" d="M84.052,432.586c-0.158,0-0.315-0.035-0.461-0.106c-11.898-5.789-28.804-20.761-29.518-21.396
				c-0.434-0.385-0.473-1.051-0.087-1.485c0.387-0.435,1.051-0.475,1.486-0.087c0.17,0.151,16.958,15.018,28.582,20.849
				c2.513-1.28,15.376-8.489,23.828-25.675c0.256-0.521,0.886-0.735,1.409-0.48c0.522,0.257,0.736,0.887,0.48,1.409
				c-9.709,19.74-24.658,26.597-25.29,26.88C84.344,432.556,84.198,432.586,84.052,432.586z"/>
		</g>
		<g>
			<path style="fill:#B7CB71;" d="M89.2,452.534c-0.051,0-0.102-0.004-0.152-0.011c-15.536-2.266-34.44-16.648-35.237-17.259
				c-0.461-0.353-0.548-1.014-0.195-1.476c0.354-0.459,1.013-0.548,1.475-0.195c0.19,0.146,19.092,14.526,34.051,16.815
				c1.737-0.479,15.646-4.813,26.174-22.943c0.292-0.501,0.938-0.673,1.438-0.382c0.503,0.292,0.674,0.936,0.382,1.439
				c-11.678,20.112-27.053,23.836-27.702,23.985C89.357,452.525,89.279,452.534,89.2,452.534z"/>
		</g>
	</g>
	<g>
		<g>
			<path style="fill:#84993E;" d="M182.241,314.698c-10.928-0.816-17.072-29.22-17.072-29.22s4.596,2.955,7.551,0.657
				c2.955-2.298-1.642-21.34-1.642-21.34s3.94,4.596,7.879,2.626c3.94-1.97-0.328-22.654-0.328-22.654s2.955,2.955,5.91,1.97
				c2.955-0.985,0.328-20.684,0.328-20.684s3.611,3.283,6.566,1.642c2.955-1.642,0.657-17.729,0.657-17.729s3.283,3.94,5.581,2.955
				c2.298-0.985,6.895-19.042,5.581-27.907c0,0,9.521,19.223,9.521,32.503c0,3.94,5.91-0.328,5.91-0.328s-7.551,18.385-4.596,20.355
				c2.955,1.97,5.91,0.657,5.91,0.657s-13.132,20.027-10.178,21.34c2.955,1.313,5.91-0.657,5.91-0.657s-13.133,18.385-10.178,20.355
				c2.955,1.97,5.91,0,5.91,0s-14.117,14.774-9.849,15.759c4.268,0.985,6.566-1.313,6.566-1.313S204.238,316.339,182.241,314.698z"
				/>
		</g>
		<g>
			<path style="fill:#5A7036;" d="M180.49,314.206c0,0,0.023,0.05,0.056,0.122c0.553,0.19,1.116,0.327,1.695,0.37
				c21.997,1.641,25.937-21.012,25.937-21.012s-2.298,2.298-6.566,1.313c-4.268-0.985,9.849-15.759,9.849-15.759s-2.955,1.97-5.91,0
				c-2.955-1.97,10.178-20.355,10.178-20.355s-2.955,1.97-5.91,0.656c-2.955-1.313,10.178-21.34,10.178-21.34
				s-2.955,1.313-5.91-0.657c-2.955-1.97,4.596-20.355,4.596-20.355s-5.91,4.268-5.91,0.328c0-13.279-9.521-32.503-9.521-32.503
				S218.778,220.899,180.49,314.206z"/>
		</g>
		<g>
			<path style="fill:#B7CB71;" d="M177.272,320.728c-0.138,0-0.279-0.027-0.414-0.085c-0.534-0.228-0.782-0.847-0.553-1.381
				c32.971-77.038,28.924-116.833,28.879-117.225c-0.066-0.577,0.349-1.099,0.926-1.164c0.578-0.078,1.099,0.348,1.165,0.926
				c0.045,0.399,4.152,40.748-29.036,118.292C178.069,320.488,177.681,320.728,177.272,320.728z"/>
		</g>
		<g>
			<path style="fill:#B7CB71;" d="M205.264,221.309c-0.431,0-0.835-0.267-0.99-0.696l-2.896-8.044
				c-0.197-0.547,0.087-1.15,0.634-1.346c0.546-0.2,1.15,0.087,1.347,0.633l2.896,8.044c0.197,0.547-0.087,1.15-0.634,1.346
				C205.503,221.289,205.383,221.309,205.264,221.309z"/>
		</g>
		<g>
			<path style="fill:#B7CB71;" d="M202.369,243.187c-0.416,0-0.81-0.249-0.976-0.658l-6.113-15.122
				c-0.218-0.54,0.043-1.152,0.581-1.37c0.542-0.219,1.153,0.042,1.37,0.581l6.113,15.122c0.218,0.54-0.043,1.152-0.581,1.37
				C202.634,243.162,202.5,243.187,202.369,243.187z"/>
		</g>
		<g>
			<path style="fill:#B7CB71;" d="M196.578,265.387c-0.422,0-0.821-0.256-0.982-0.673l-7.078-18.34
				c-0.209-0.543,0.061-1.152,0.603-1.361c0.54-0.21,1.151,0.061,1.361,0.602l7.078,18.34c0.209,0.543-0.061,1.152-0.603,1.361
				C196.832,265.365,196.704,265.387,196.578,265.387z"/>
		</g>
		<g>
			<path style="fill:#B7CB71;" d="M190.143,286.302c-0.428,0-0.83-0.262-0.987-0.687l-6.435-17.375
				c-0.201-0.546,0.077-1.151,0.622-1.352c0.543-0.204,1.151,0.076,1.353,0.621l6.435,17.375c0.201,0.546-0.077,1.151-0.622,1.352
				C190.388,286.281,190.264,286.302,190.143,286.302z"/>
		</g>
		<g>
			<path style="fill:#B7CB71;" d="M183.386,304.963c-0.415,0-0.808-0.247-0.975-0.655l-6.435-15.766
				c-0.22-0.539,0.039-1.152,0.577-1.372c0.538-0.222,1.152,0.038,1.372,0.577l6.435,15.766c0.22,0.538-0.039,1.152-0.577,1.372
				C183.654,304.938,183.518,304.963,183.386,304.963z"/>
		</g>
		<g>
			<path style="fill:#B7CB71;" d="M186.926,298.527c-0.376,0-0.74-0.202-0.929-0.557c-0.273-0.513-0.08-1.15,0.433-1.424
				l9.653-5.148c0.514-0.27,1.151-0.078,1.424,0.434c0.273,0.513,0.08,1.15-0.433,1.424l-9.653,5.148
				C187.262,298.487,187.093,298.527,186.926,298.527z"/>
		</g>
		<g>
			<path style="fill:#B7CB71;" d="M194.648,275.04c-0.34,0-0.674-0.164-0.877-0.469c-0.322-0.484-0.192-1.137,0.292-1.459
				l9.652-6.435c0.483-0.323,1.136-0.192,1.459,0.292c0.322,0.484,0.192,1.137-0.292,1.459l-9.652,6.435
				C195.052,274.982,194.849,275.04,194.648,275.04z"/>
		</g>
		<g>
			<path style="fill:#B7CB71;" d="M200.761,253.483c-0.34,0-0.674-0.164-0.877-0.469c-0.322-0.484-0.192-1.137,0.292-1.459
				l10.618-7.079c0.484-0.322,1.136-0.192,1.459,0.292c0.322,0.484,0.192,1.137-0.292,1.459l-10.618,7.079
				C201.164,253.426,200.961,253.483,200.761,253.483z"/>
		</g>
		<g>
			<path style="fill:#B7CB71;" d="M205.265,231.926c-0.317,0-0.631-0.143-0.838-0.414c-0.352-0.463-0.263-1.123,0.199-1.476
				l6.757-5.148c0.464-0.351,1.123-0.261,1.475,0.199c0.352,0.462,0.263,1.123-0.199,1.476l-6.757,5.148
				C205.711,231.856,205.487,231.926,205.265,231.926z"/>
		</g>
	</g>
	<g>
		<g>
			<path style="fill:#84993E;" d="M82.772,167.342c0,0-39.765-23.94-33.679-37.331c6.087-13.39,13.796-7.304,13.796-7.304
				s-21.1-23.535-14.202-32.461c6.898-8.927,15.013,0,15.013,0S43.818,62.654,51.528,54.133s18.26,0,18.26,0
				s-10.956-31.65,10.144-31.244c21.1,0.406,11.767,30.027,11.767,30.027s7.304-10.956,17.854-1.623S99.408,86.189,99.408,86.189
				s8.521-9.333,14.202,3.652c5.681,12.985-10.144,37.331-10.144,37.331s7.304-10.144,14.202,0
				C124.566,137.315,91.293,166.125,82.772,167.342z"/>
		</g>
		<g>
			<path style="fill:#5A7036;" d="M79.113,22.912c-19.963,0.446-9.326,31.221-9.326,31.221s-10.55-8.521-18.26,0
				c-7.71,8.521,12.173,36.113,12.173,36.113s-8.115-8.927-15.013,0c-6.898,8.927,14.202,32.461,14.202,32.461
				s-7.71-6.087-13.796,7.304c-6.086,13.39,33.679,37.331,33.679,37.331C76.181,129.87,78.028,47.352,79.113,22.912z"/>
		</g>
		<g>
			<path style="fill:#B7CB71;" d="M85.671,177.25c-0.454,0-0.873-0.295-1.008-0.752C74.119,141.03,77.506,33.744,77.541,32.664
				c0.019-0.58,0.51-1.055,1.086-1.017c0.581,0.019,1.036,0.505,1.017,1.086c-0.035,1.076-3.412,108.022,7.035,143.164
				c0.165,0.557-0.152,1.143-0.709,1.309C85.872,177.235,85.77,177.25,85.671,177.25z"/>
		</g>
		<g>
			<path style="fill:#B7CB71;" d="M81.166,157.302c-0.177,0-0.357-0.044-0.521-0.139c-18.119-10.354-24.324-24.674-24.579-25.28
				c-0.226-0.534,0.025-1.151,0.56-1.378c0.534-0.226,1.153,0.025,1.379,0.559c0.06,0.142,6.217,14.289,23.684,24.271
				c0.505,0.289,0.68,0.931,0.392,1.436C81.887,157.112,81.532,157.302,81.166,157.302z"/>
		</g>
		<g>
			<path style="fill:#B7CB71;" d="M80.871,144.11c-0.039,0-0.065-0.001-0.078-0.001c-0.581-0.03-1.028-0.523-0.999-1.104
				c0.028-0.577,0.525-1.031,1.088-0.999l0,0c0.139,0,6.424-0.123,19.498-12.894c0.416-0.404,1.083-0.397,1.488,0.018
				c0.406,0.416,0.398,1.082-0.017,1.489C88.479,143.68,81.7,144.11,80.871,144.11z"/>
		</g>
		<g>
			<path style="fill:#B7CB71;" d="M77.95,123.839c-0.121,0-0.243-0.021-0.363-0.065c-16.053-5.897-21.948-22.777-22.191-23.494
				c-0.187-0.55,0.107-1.147,0.657-1.334c0.551-0.187,1.147,0.106,1.336,0.657c0.056,0.166,5.832,16.652,20.924,22.196
				c0.546,0.2,0.825,0.805,0.625,1.35C78.781,123.575,78.378,123.839,77.95,123.839z"/>
		</g>
		<g>
			<path style="fill:#B7CB71;" d="M79.236,111.614c-0.468,0-0.894-0.313-1.018-0.787c-0.146-0.562,0.191-1.137,0.753-1.284
				c14.277-3.725,26.027-18.467,26.144-18.616c0.361-0.455,1.023-0.534,1.478-0.175c0.456,0.36,0.535,1.021,0.176,1.477
				c-0.495,0.629-12.296,15.446-27.266,19.351C79.413,111.602,79.324,111.614,79.236,111.614z"/>
		</g>
		<g>
			<path style="fill:#B7CB71;" d="M77.627,90.378c-0.128,0-0.257-0.023-0.383-0.072c-15.089-5.904-21.583-25.249-21.852-26.07
				c-0.181-0.552,0.12-1.146,0.672-1.328c0.554-0.183,1.146,0.12,1.328,0.672c0.063,0.191,6.463,19.227,20.618,24.765
				c0.542,0.212,0.808,0.822,0.597,1.364C78.445,90.124,78.048,90.378,77.627,90.378z"/>
		</g>
		<g>
			<path style="fill:#B7CB71;" d="M78.271,77.829c-0.465,0-0.89-0.31-1.016-0.78c-0.151-0.561,0.183-1.139,0.744-1.289
				c17.306-4.636,23.366-19.491,23.425-19.641c0.214-0.539,0.824-0.805,1.366-0.591c0.54,0.214,0.805,0.825,0.591,1.366
				c-0.257,0.651-6.518,15.992-24.837,20.899C78.452,77.818,78.361,77.829,78.271,77.829z"/>
		</g>
		<g>
			<path style="fill:#B7CB71;" d="M77.305,54.985c-0.216,0-0.434-0.066-0.621-0.203c-5.119-3.753-6.476-12.234-6.531-12.593
				c-0.088-0.575,0.305-1.111,0.879-1.2c0.58-0.087,1.112,0.306,1.201,0.88c0.012,0.079,1.284,7.981,5.695,11.216
				c0.469,0.344,0.57,1.002,0.227,1.471C77.948,54.836,77.629,54.985,77.305,54.985z"/>
		</g>
		<g>
			<path style="fill:#B7CB71;" d="M78.594,43.725c-0.411,0-0.801-0.242-0.97-0.644c-0.226-0.535,0.026-1.152,0.561-1.378
				c5.837-2.458,9.92-6.491,9.961-6.532c0.411-0.409,1.077-0.411,1.488,0.002c0.41,0.411,0.41,1.076,0,1.487
				c-0.177,0.177-4.4,4.359-10.631,6.983C78.868,43.698,78.73,43.725,78.594,43.725z"/>
		</g>
	</g>
	<g>
		<g>
			<path style="fill:#516436;" d="M413.946,149.379c0,0-24.052,20.869-52.349,4.245c0,0,1.769-10.611,15.21-14.502
				c0,0-20.161-6.013-26.882-25.821c0,0,9.904-6.72,21.93-3.537c0,0-19.454-17.332-18.747-42.799c0,0,24.406-0.707,41.031,12.38
				c0,0,0.354-24.052,19.454-39.262c0,0,15.917,16.978,17.686,41.738c0,0,17.332-12.38,37.14-9.55c0,0,0,26.882-15.563,40.677
				c0,0,9.904-1.061,20.515,6.367c0,0-9.55,14.148-22.638,16.978c0,0,11.319,9.904,11.319,18.393
				C462.051,154.685,430.217,167.418,413.946,149.379z"/>
		</g>
		<g>
			<path style="fill:#38482C;" d="M413.946,149.379c16.271,18.039,48.105,5.306,48.105,5.306c0-8.489-11.319-18.393-11.319-18.393
				c13.087-2.83,22.638-16.978,22.638-16.978c-10.611-7.428-20.515-6.367-20.515-6.367c15.563-13.795,15.563-40.677,15.563-40.677
				c-19.808-2.83-37.14,9.55-37.14,9.55c-1.769-24.76-17.686-41.738-17.686-41.738S419.837,97.757,413.946,149.379z"/>
		</g>
		<g>
			<path style="fill:#849354;" d="M412.56,157.653c-0.066,0-0.133-0.006-0.199-0.018c-0.57-0.11-0.944-0.661-0.836-1.232
				c8.558-44.687,2.304-103.984,2.24-104.578c-0.063-0.577,0.356-1.097,0.933-1.159c0.564-0.058,1.096,0.356,1.159,0.933
				c0.065,0.597,6.352,60.201-2.265,105.201C413.496,157.302,413.055,157.653,412.56,157.653z"/>
		</g>
		<g>
			<path style="fill:#849354;" d="M416.742,113.251c-0.105,0-0.212-0.015-0.318-0.049c-25.395-8.036-50.088-35.094-50.333-35.367
				c-0.391-0.431-0.357-1.097,0.074-1.486c0.431-0.391,1.097-0.357,1.486,0.074c0.242,0.268,24.561,26.91,49.408,34.773
				c0.554,0.175,0.861,0.767,0.686,1.321C417.603,112.965,417.189,113.251,416.742,113.251z"/>
		</g>
		<g>
			<path style="fill:#849354;" d="M418.35,100.382c-0.518,0-0.968-0.381-1.041-0.909c-0.08-0.576,0.322-1.107,0.898-1.186
				c20.379-2.822,40.156-18.29,40.353-18.445c0.457-0.361,1.119-0.283,1.478,0.173c0.361,0.456,0.284,1.118-0.173,1.478
				c-0.824,0.652-20.415,15.978-41.371,18.879C418.447,100.379,418.397,100.382,418.35,100.382z"/>
		</g>
		<g>
			<path style="fill:#849354;" d="M410.337,128.809c-22.005,0-47.717-8.763-47.99-8.858c-0.55-0.189-0.842-0.788-0.653-1.337
				c0.189-0.551,0.791-0.841,1.337-0.653c0.288,0.099,29.056,9.89,51.399,8.632c0.594-0.027,1.078,0.41,1.11,0.991
				c0.033,0.581-0.411,1.078-0.991,1.11C413.166,128.772,411.758,128.809,410.337,128.809z"/>
		</g>
		<g>
			<path style="fill:#849354;" d="M378.801,151.664c-2.132,0-3.45-0.11-3.659-0.128c-0.579-0.051-1.006-0.563-0.955-1.142
				c0.052-0.579,0.573-1,1.142-0.955c0.211,0.015,21.408,1.744,38.891-10.119c0.48-0.327,1.135-0.202,1.461,0.28
				c0.327,0.481,0.201,1.136-0.28,1.461C401.515,150.486,385.791,151.664,378.801,151.664z"/>
		</g>
		<g>
			<path style="fill:#849354;" d="M460.059,123.261c-7.11,0-30.269-1.031-43.095-13.857c-0.411-0.411-0.411-1.077,0-1.488
				c0.411-0.411,1.077-0.411,1.488,0c14.297,14.296,43.314,13.219,43.611,13.206c0.577-0.046,1.072,0.425,1.097,1.006
				c0.025,0.581-0.426,1.071-1.006,1.097C461.978,123.233,461.24,123.261,460.059,123.261z"/>
		</g>
		<g>
			<path style="fill:#849354;" d="M450.101,149.944c-4.142,0-23.222-0.955-34.869-17.842c-0.33-0.478-0.21-1.134,0.269-1.464
				c0.477-0.331,1.133-0.21,1.464,0.269c12.369,17.933,33.607,16.93,33.822,16.92c0.574-0.044,1.077,0.409,1.111,0.99
				c0.034,0.58-0.409,1.077-0.989,1.111C450.885,149.931,450.603,149.944,450.101,149.944z"/>
		</g>
		<g>
			<path style="fill:#849354;" d="M416.097,79.468c-0.22,0-0.441-0.069-0.63-0.211c-6.598-4.947-10.79-15.455-10.966-15.9
				c-0.213-0.541,0.052-1.151,0.593-1.365c0.543-0.212,1.153,0.053,1.366,0.593c0.04,0.104,4.153,10.401,10.269,14.988
				c0.466,0.348,0.56,1.008,0.211,1.473C416.733,79.324,416.418,79.468,416.097,79.468z"/>
		</g>
		<g>
			<path style="fill:#849354;" d="M417.064,69.816c-0.332,0-0.659-0.156-0.863-0.449c-0.333-0.476-0.218-1.132,0.259-1.465
				c2.996-2.097,5.475-6.085,5.499-6.125c0.305-0.495,0.954-0.65,1.448-0.344c0.494,0.305,0.648,0.953,0.344,1.448
				c-0.11,0.178-2.728,4.395-6.085,6.746C417.484,69.754,417.273,69.816,417.064,69.816z"/>
		</g>
		<g>
			<path style="fill:#849354;" d="M377.811,89.442c-7.425,0-13.477-1.256-13.73-1.309c-0.568-0.119-0.932-0.677-0.813-1.247
				c0.119-0.568,0.679-0.931,1.247-0.813c0.06,0.012,6.102,1.264,13.297,1.264c0.582,0,1.052,0.471,1.052,1.052
				S378.392,89.442,377.811,89.442z"/>
		</g>
		<g>
			<path style="fill:#849354;" d="M390.358,97.808c-0.561,0-1.027-0.443-1.05-1.008c-0.308-7.396-4.658-15.551-4.702-15.634
				c-0.275-0.511-0.083-1.149,0.429-1.425c0.511-0.274,1.15-0.083,1.425,0.429c0.188,0.349,4.623,8.669,4.951,16.542
				c0.025,0.581-0.427,1.072-1.007,1.095C390.388,97.808,390.373,97.808,390.358,97.808z"/>
		</g>
		<g>
			<path style="fill:#849354;" d="M385.209,111.965c-0.553,0-1.016-0.432-1.049-0.991c-0.034-0.58,0.408-1.078,0.989-1.112
				c0.106-0.006,10.726-0.674,16.209-4.33c0.485-0.322,1.138-0.192,1.459,0.292c0.323,0.483,0.192,1.137-0.292,1.459
				c-5.96,3.973-16.795,4.652-17.253,4.679C385.251,111.964,385.23,111.965,385.209,111.965z"/>
		</g>
		<g>
			<path style="fill:#849354;" d="M425.59,98.451c-0.121,0-0.245-0.021-0.366-0.066c-0.545-0.201-0.823-0.807-0.621-1.352
				c1.612-4.352,4.128-9.241,4.234-9.448c0.267-0.516,0.899-0.716,1.418-0.452c0.516,0.266,0.718,0.901,0.452,1.418
				c-0.026,0.049-2.564,4.982-4.131,9.214C426.42,98.189,426.018,98.451,425.59,98.451z"/>
		</g>
		<g>
			<path style="fill:#38482C;" d="M434.438,95.629"/>
		</g>
		<g>
			<path style="fill:#849354;" d="M439.105,93.625c-0.064,0-0.129-0.006-0.195-0.017c-0.57-0.108-0.948-0.658-0.84-1.229
				c0.498-2.665,3.794-10.057,3.934-10.371c0.236-0.529,0.856-0.772,1.391-0.531c0.53,0.237,0.769,0.859,0.531,1.39
				c-0.926,2.072-3.411,7.89-3.787,9.9C440.043,93.273,439.601,93.625,439.105,93.625z"/>
		</g>
		<g>
			<path style="fill:#849354;" d="M448.21,102.662c-7.552,0-14.9-5.63-15.221-5.88c-0.458-0.356-0.542-1.016-0.186-1.476
				c0.355-0.457,1.019-0.544,1.476-0.187c0.076,0.058,7.664,5.889,14.732,5.412c0.566-0.025,1.08,0.403,1.117,0.983
				c0.037,0.58-0.403,1.08-0.984,1.117C448.834,102.652,448.522,102.662,448.21,102.662z"/>
		</g>
		<g>
			<path style="fill:#849354;" d="M456.976,90.71c-3.973,0-8.012-1.253-8.214-1.316c-0.554-0.175-0.862-0.765-0.689-1.319
				c0.174-0.554,0.769-0.86,1.32-0.689c0.053,0.016,5.455,1.693,9.504,1.089c0.576-0.076,1.111,0.312,1.195,0.887
				c0.085,0.575-0.312,1.11-0.887,1.195C458.483,90.664,457.73,90.71,456.976,90.71z"/>
		</g>
		<g>
			<path style="fill:#849354;" d="M408.698,109.552c-0.516,0-0.966-0.378-1.041-0.903c-0.938-6.563-5.844-19.431-5.893-19.561
				c-0.208-0.543,0.064-1.151,0.606-1.359c0.538-0.207,1.151,0.063,1.359,0.606c0.206,0.536,5.04,13.219,6.012,20.015
				c0.082,0.575-0.318,1.109-0.893,1.191C408.797,109.549,408.747,109.552,408.698,109.552z"/>
		</g>
		<g>
			<path style="fill:#849354;" d="M424.303,114.378c-0.398,0-0.778-0.226-0.956-0.61c-0.245-0.527-0.014-1.153,0.513-1.397
				c0.363-0.169,8.986-4.119,16.691-4.119c0.582,0,1.052,0.471,1.052,1.052c0,0.582-0.471,1.052-1.052,1.052
				c-7.246,0-15.722,3.885-15.807,3.924C424.601,114.347,424.451,114.378,424.303,114.378z"/>
		</g>
		<g>
			<path style="fill:#849354;" d="M435.886,131.752c-0.258,0-0.516-0.093-0.719-0.284c-5.182-4.848-6.844-13.719-6.911-14.094
				c-0.105-0.571,0.274-1.119,0.846-1.223c0.571-0.099,1.12,0.274,1.224,0.846c0.016,0.085,1.611,8.567,6.28,12.934
				c0.424,0.398,0.446,1.064,0.049,1.488C436.447,131.64,436.166,131.752,435.886,131.752z"/>
		</g>
		<g>
			<path style="fill:#849354;" d="M440.874,120.812c-0.386,0-0.759-0.213-0.942-0.582c-0.26-0.52-0.049-1.152,0.471-1.412
				c0.237-0.119,5.857-2.925,8.91-4.211c0.529-0.223,1.152,0.025,1.378,0.562c0.225,0.535-0.026,1.152-0.562,1.378
				c-2.99,1.259-8.727,4.124-8.785,4.153C441.193,120.776,441.033,120.812,440.874,120.812z"/>
		</g>
		<g>
			<path style="fill:#849354;" d="M454.388,130.626c-0.097,0-0.193-0.013-0.29-0.04c-2.523-0.72-6.313-6.815-7.047-8.029
				c-0.301-0.497-0.142-1.145,0.356-1.445c0.498-0.301,1.145-0.142,1.445,0.356c1.911,3.157,4.68,6.766,5.824,7.093
				c0.559,0.16,0.883,0.742,0.723,1.301C455.266,130.325,454.845,130.626,454.388,130.626z"/>
		</g>
		<g>
			<path style="fill:#849354;" d="M455.031,123.065c-0.327,0-0.65-0.152-0.855-0.438c-0.339-0.472-0.232-1.128,0.24-1.469
				c0.165-0.119,4.084-2.939,6.036-4.077c0.503-0.291,1.146-0.122,1.44,0.379c0.292,0.503,0.122,1.147-0.379,1.44
				c-1.864,1.086-5.827,3.937-5.867,3.966C455.459,123,455.244,123.065,455.031,123.065z"/>
		</g>
		<g>
			<path style="fill:#849354;" d="M370.733,122.1c-0.345,0-0.683-0.17-0.885-0.481c-1.739-2.688-4.298-6.37-4.324-6.406
				c-0.332-0.478-0.214-1.133,0.263-1.465c0.479-0.332,1.133-0.215,1.466,0.263c0.026,0.038,2.603,3.747,4.363,6.465
				c0.315,0.487,0.176,1.139-0.312,1.455C371.126,122.046,370.929,122.1,370.733,122.1z"/>
		</g>
		<g>
			<path style="fill:#849354;" d="M367.997,131.109c-0.452,0-0.869-0.292-1.007-0.746c-0.169-0.557,0.145-1.144,0.701-1.313
				c0.088-0.027,8.865-2.711,12.366-5.452c0.457-0.361,1.118-0.278,1.477,0.18s0.279,1.119-0.18,1.477
				c-3.811,2.983-12.676,5.696-13.052,5.81C368.201,131.095,368.098,131.109,367.997,131.109z"/>
		</g>
		<g>
			<path style="fill:#849354;" d="M391.966,126.604c-0.475,0-0.906-0.324-1.023-0.807c-0.905-3.774-5.734-10.502-5.783-10.57
				c-0.339-0.472-0.233-1.129,0.238-1.47c0.473-0.337,1.129-0.231,1.47,0.238c0.209,0.29,5.12,7.134,6.122,11.31
				c0.136,0.565-0.213,1.134-0.778,1.269C392.131,126.595,392.048,126.604,391.966,126.604z"/>
		</g>
		<g>
			<path style="fill:#849354;" d="M386.981,138.187c-0.388,0-0.762-0.216-0.944-0.587c-0.257-0.522-0.043-1.152,0.478-1.409
				c0.113-0.055,11.269-5.579,14.311-9.078c0.382-0.439,1.047-0.484,1.485-0.104c0.439,0.381,0.485,1.046,0.104,1.485
				c-3.319,3.817-14.495,9.35-14.969,9.583C387.295,138.152,387.137,138.187,386.981,138.187z"/>
		</g>
		<g>
			<path style="fill:#849354;" d="M410.949,128.535c-0.486,0-0.922-0.338-1.028-0.831c-0.897-4.189-6.462-10.563-6.518-10.627
				c-0.384-0.437-0.341-1.102,0.096-1.485c0.438-0.384,1.103-0.34,1.485,0.096c0.245,0.278,5.984,6.857,6.995,11.574
				c0.122,0.568-0.239,1.128-0.808,1.25C411.096,128.527,411.022,128.535,410.949,128.535z"/>
		</g>
		<g>
			<path style="fill:#849354;" d="M382.959,151.218c-0.324,0-0.642-0.148-0.848-0.429c-2.082-2.825-6.681-5.302-6.728-5.327
				c-0.513-0.273-0.706-0.911-0.433-1.423c0.273-0.512,0.91-0.704,1.423-0.434c0.205,0.11,5.063,2.723,7.43,5.936
				c0.345,0.468,0.246,1.126-0.223,1.471C383.395,151.152,383.176,151.218,382.959,151.218z"/>
		</g>
		<g>
			<path style="fill:#849354;" d="M384.89,158.136c-0.303,0-0.603-0.13-0.811-0.381c-0.371-0.447-0.309-1.111,0.139-1.481
				c1.527-1.267,5.737-4.959,6.848-6.811c0.299-0.498,0.944-0.661,1.444-0.361c0.498,0.299,0.66,0.946,0.361,1.444
				c-1.523,2.537-7.074,7.153-7.31,7.347C385.363,158.057,385.126,158.136,384.89,158.136z"/>
		</g>
		<g>
			<path style="fill:#849354;" d="M400.654,147.679c-0.23,0-0.462-0.075-0.657-0.23c-2.352-1.883-8.238-5.863-8.297-5.902
				c-0.482-0.326-0.608-0.98-0.284-1.461s0.981-0.608,1.461-0.284c0.245,0.165,6.016,4.068,8.435,6.003
				c0.453,0.364,0.527,1.026,0.164,1.48C401.268,147.544,400.963,147.679,400.654,147.679z"/>
		</g>
		<g>
			<path style="fill:#849354;" d="M404.515,152.344c-0.19,0-0.383-0.051-0.557-0.16c-0.492-0.307-0.642-0.957-0.334-1.45
				c0.024-0.038,2.374-3.811,3.45-6.58c0.211-0.543,0.82-0.813,1.362-0.599c0.542,0.21,0.81,0.82,0.599,1.362
				c-1.148,2.955-3.526,6.772-3.627,6.933C405.209,152.169,404.865,152.344,404.515,152.344z"/>
		</g>
		<g>
			<path style="fill:#849354;" d="M420.28,137.544c-0.485,0-0.921-0.337-1.028-0.83c-0.122-0.568,0.238-1.128,0.807-1.251
				c0.345-0.074,8.5-1.808,13.035-0.633c0.562,0.146,0.9,0.72,0.754,1.282c-0.145,0.562-0.721,0.907-1.283,0.754
				c-4.048-1.048-11.982,0.637-12.062,0.654C420.428,137.536,420.354,137.544,420.28,137.544z"/>
		</g>
		<g>
			<path style="fill:#849354;" d="M433.634,155.561c-0.243,0-0.486-0.083-0.684-0.253c-3.567-3.057-6.317-11.7-6.434-12.065
				c-0.175-0.555,0.134-1.146,0.688-1.321c0.559-0.173,1.146,0.134,1.321,0.688c0.026,0.084,2.684,8.434,5.794,11.099
				c0.442,0.379,0.493,1.043,0.115,1.484C434.225,155.437,433.93,155.561,433.634,155.561z"/>
		</g>
		<g>
			<path style="fill:#849354;" d="M437.656,147.518c-0.257,0-0.514-0.094-0.716-0.282c-0.425-0.396-0.45-1.061-0.054-1.487
				c0.178-0.192,4.419-4.722,8.654-6.077c0.556-0.177,1.146,0.128,1.323,0.681c0.178,0.554-0.128,1.146-0.681,1.323
				c-3.706,1.186-7.714,5.462-7.754,5.506C438.219,147.404,437.937,147.518,437.656,147.518z"/>
		</g>
		<g>
			<path style="fill:#849354;" d="M450.204,155.24c-0.102,0-0.207-0.014-0.309-0.046c-2.32-0.713-5.424-5.016-6.023-5.872
				c-0.333-0.476-0.218-1.132,0.259-1.465c0.474-0.334,1.13-0.218,1.465,0.259c1.319,1.881,3.716,4.697,4.918,5.067
				c0.556,0.172,0.867,0.76,0.697,1.315C451.07,154.949,450.654,155.24,450.204,155.24z"/>
		</g>
	</g>
	<g>
		<g>
			<path style="fill:#516436;" d="M205.295,34.343c0,0-65.662,52.202-55.156,96.196c10.506,43.994,74.327,33.47,81.75,12.147
				C249.946,90.813,204.967,95.409,205.295,34.343z"/>
		</g>
		<g>
			<path style="fill:#38482C;" d="M193.453,161.102c17.743-0.174,34.811-8.006,38.435-18.416
				c18.057-51.873-26.922-47.277-26.593-108.343C205.295,34.343,175.808,96.19,193.453,161.102z"/>
		</g>
		<g>
			<path style="fill:#849354;" d="M195.365,165.792c-0.412,0-0.802-0.243-0.971-0.646c-21.156-50.484,5.988-120.743,6.265-121.447
				c0.213-0.541,0.826-0.803,1.364-0.594c0.541,0.213,0.807,0.823,0.595,1.365c-0.273,0.696-27.106,70.172-6.282,119.863
				c0.224,0.536-0.028,1.153-0.564,1.377C195.638,165.766,195.501,165.792,195.365,165.792z"/>
		</g>
		<g>
			<path style="fill:#849354;" d="M191.745,156.381c-0.122,0-0.247-0.022-0.368-0.067c-16.225-6.053-32.547-24.131-33.234-24.898
				c-0.388-0.433-0.352-1.098,0.081-1.486c0.433-0.388,1.099-0.351,1.486,0.082c0.165,0.184,16.669,18.459,32.403,24.33
				c0.545,0.202,0.821,0.809,0.618,1.354C192.573,156.12,192.171,156.381,191.745,156.381z"/>
		</g>
		<g>
			<path style="fill:#849354;" d="M189.813,148.176c-0.477,0-0.91-0.327-1.023-0.812c-0.133-0.566,0.218-1.133,0.784-1.265
				c0.223-0.052,22.464-5.472,36.054-25.152c0.329-0.479,0.984-0.598,1.464-0.268c0.478,0.331,0.598,0.986,0.268,1.465
				c-14.064,20.368-37.074,25.951-37.305,26.005C189.974,148.167,189.893,148.176,189.813,148.176z"/>
		</g>
		<g>
			<path style="fill:#849354;" d="M187.16,128.63c-0.115,0-0.232-0.018-0.347-0.059c-15.436-5.391-26.211-27.355-26.662-28.287
				c-0.253-0.523-0.034-1.152,0.489-1.406c0.523-0.251,1.153-0.033,1.405,0.489c0.107,0.22,10.851,22.113,25.461,27.216
				c0.549,0.192,0.838,0.792,0.646,1.341C188.002,128.359,187.595,128.63,187.16,128.63z"/>
		</g>
		<g>
			<path style="fill:#849354;" d="M188.125,116.082c-0.455,0-0.874-0.297-1.009-0.755c-0.164-0.557,0.155-1.143,0.712-1.306
				c0.202-0.06,20.328-6.093,30.374-18.243c0.371-0.447,1.034-0.51,1.481-0.14c0.448,0.37,0.511,1.034,0.14,1.482
				c-10.461,12.65-30.551,18.67-31.401,18.919C188.323,116.068,188.223,116.082,188.125,116.082z"/>
		</g>
		<g>
			<path style="fill:#849354;" d="M188.366,99.19c-0.115,0-0.231-0.019-0.346-0.059c-11.53-4.011-15.252-21.282-15.404-22.015
				c-0.119-0.569,0.247-1.126,0.816-1.244c0.568-0.123,1.126,0.246,1.245,0.815c0.035,0.168,3.633,16.838,14.035,20.457
				c0.549,0.191,0.839,0.79,0.648,1.339C189.209,98.918,188.802,99.19,188.366,99.19z"/>
		</g>
		<g>
			<path style="fill:#849354;" d="M190.055,91.468c-0.452,0-0.869-0.293-1.007-0.748c-0.168-0.556,0.146-1.144,0.703-1.311
				c0.125-0.038,12.616-3.864,18.865-10.113c0.411-0.411,1.077-0.411,1.488,0c0.411,0.411,0.411,1.077,0,1.488
				c-6.626,6.626-19.213,10.479-19.745,10.639C190.258,91.454,190.156,91.468,190.055,91.468z"/>
		</g>
		<g>
			<path style="fill:#849354;" d="M192.228,75.542c-0.314,0-0.625-0.14-0.833-0.408c-0.242-0.313-5.941-7.716-7.426-13.41
				c-0.146-0.562,0.191-1.137,0.753-1.284c0.56-0.144,1.137,0.19,1.284,0.753c1.377,5.279,6.996,12.578,7.053,12.651
				c0.356,0.459,0.272,1.12-0.188,1.477C192.68,75.47,192.453,75.542,192.228,75.542z"/>
		</g>
		<g>
			<path style="fill:#849354;" d="M195.123,67.337c-0.437,0-0.845-0.273-0.995-0.709c-0.19-0.55,0.102-1.149,0.652-1.338
				c0.069-0.024,6.922-2.394,9.213-3.769c0.498-0.3,1.144-0.139,1.444,0.361c0.299,0.498,0.138,1.145-0.361,1.444
				c-2.479,1.488-9.32,3.854-9.61,3.954C195.353,67.319,195.237,67.337,195.123,67.337z"/>
		</g>
		<g>
			<path style="fill:#849354;" d="M197.054,57.926c-0.42,0-0.817-0.253-0.98-0.668l-2.655-6.757
				c-0.213-0.541,0.054-1.151,0.595-1.364c0.542-0.212,1.152,0.053,1.364,0.595l2.655,6.757c0.213,0.541-0.053,1.151-0.595,1.364
				C197.312,57.903,197.182,57.926,197.054,57.926z"/>
		</g>
	</g>
	<g>
		<g>
			<path style="fill:#516436;" d="M80.976,284.785c0,0-19.699,30.533-49.575,21.997c0,0,0.657-32.503,36.114-27.578
				c0,0-39.069-3.612-32.503-47.934c0,0,27.25-5.581,39.069,35.786c0,0-20.355-44.65,12.804-69.602c0,0,20.684,28.235,4.596,67.632
				c0,0,11.819-35.458,41.696-29.22c0,0,12.147,24.623-37.099,41.696c0,0,26.265-1.97,30.205,28.563
				C126.283,306.125,99.69,314.99,80.976,284.785z"/>
		</g>
		<g>
			<path style="fill:#38482C;" d="M126.283,306.125c-3.94-30.533-30.205-28.563-30.205-28.563
				c49.247-17.072,37.099-41.696,37.099-41.696c-25.485-5.321-37.828,19.692-40.907,27.162c14.553-38.315-5.385-65.575-5.385-65.575
				s-8.377,27.285-5.91,87.331C99.69,314.99,126.283,306.125,126.283,306.125z"/>
		</g>
		<g>
			<path style="fill:#849354;" d="M81.592,295.45c-0.537,0-0.996-0.409-1.047-0.955c-4.546-48.814,3.314-89.66,3.394-90.067
				c0.112-0.571,0.664-0.94,1.236-0.83c0.57,0.112,0.941,0.665,0.83,1.235c-0.08,0.404-7.881,40.969-3.364,89.467
				c0.054,0.579-0.372,1.091-0.95,1.146C81.657,295.449,81.625,295.45,81.592,295.45z"/>
		</g>
		<g>
			<path style="fill:#849354;" d="M79.904,273.491c-0.131,0-0.265-0.025-0.394-0.077c-25.15-10.157-38.52-33.768-38.652-34.005
				c-0.283-0.508-0.1-1.148,0.407-1.431c0.51-0.282,1.149-0.101,1.432,0.407c0.129,0.23,13.159,23.206,37.602,33.078
				c0.539,0.217,0.8,0.83,0.582,1.369C80.714,273.242,80.32,273.491,79.904,273.491z"/>
		</g>
		<g>
			<path style="fill:#849354;" d="M40.33,301.724c-0.309,0-0.616-0.136-0.823-0.397c-0.362-0.454-0.288-1.116,0.167-1.479
				c0.193-0.153,19.481-15.404,39.979-20.468c0.566-0.136,1.135,0.206,1.274,0.769c0.139,0.564-0.205,1.135-0.769,1.274
				c-20.042,4.951-38.982,19.92-39.171,20.071C40.792,301.649,40.56,301.724,40.33,301.724z"/>
		</g>
		<g>
			<path style="fill:#849354;" d="M80.388,276.627c-0.363,0-0.717-0.188-0.911-0.525c-0.291-0.503-0.12-1.147,0.383-1.438
				c0.274-0.159,27.599-16.053,44.442-32.185c0.421-0.401,1.087-0.387,1.488,0.033c0.402,0.419,0.387,1.085-0.032,1.488
				c-17.028,16.308-44.567,32.326-44.843,32.485C80.748,276.582,80.567,276.627,80.388,276.627z"/>
		</g>
		<g>
			<path style="fill:#849354;" d="M116.101,300.276c-0.259,0-0.519-0.094-0.722-0.287c-16.472-15.53-34.807-19.967-34.991-20.011
				c-0.566-0.133-0.917-0.699-0.785-1.264c0.133-0.567,0.701-0.918,1.264-0.785c0.189,0.044,19.052,4.592,35.955,20.529
				c0.423,0.399,0.443,1.065,0.044,1.487C116.659,300.165,116.38,300.276,116.101,300.276z"/>
		</g>
		<g>
			<path style="fill:#849354;" d="M79.423,256.841c-0.338,0-0.669-0.162-0.873-0.464l-6.033-8.929
				c-0.325-0.481-0.199-1.136,0.283-1.46c0.484-0.327,1.136-0.199,1.461,0.283l6.033,8.929c0.325,0.481,0.199,1.136-0.283,1.46
				C79.83,256.782,79.625,256.841,79.423,256.841z"/>
		</g>
		<g>
			<path style="fill:#849354;" d="M80.649,249.379c-0.253,0-0.508-0.091-0.71-0.275c-0.429-0.393-0.459-1.058-0.067-1.487
				l8.991-9.836c0.392-0.429,1.057-0.458,1.487-0.067c0.429,0.393,0.459,1.058,0.067,1.487l-8.991,9.836
				C81.219,249.264,80.934,249.379,80.649,249.379z"/>
		</g>
		<g>
			<path style="fill:#849354;" d="M80.88,238.979c-0.417,0-0.811-0.249-0.976-0.659c-1.876-4.651-4.294-9.088-7.187-13.188
				c-0.335-0.475-0.222-1.132,0.253-1.467c0.475-0.334,1.132-0.221,1.466,0.254c2.987,4.231,5.483,8.812,7.419,13.613
				c0.217,0.539-0.043,1.152-0.582,1.37C81.144,238.954,81.011,238.979,80.88,238.979z"/>
		</g>
		<g>
			<path style="fill:#849354;" d="M82.336,227.657c-0.235,0-0.472-0.078-0.668-0.239c-0.449-0.369-0.514-1.032-0.145-1.481
				c2.689-3.273,5.758-6.24,9.123-8.817c0.46-0.352,1.122-0.266,1.475,0.195c0.354,0.461,0.266,1.122-0.196,1.476
				c-3.236,2.479-6.189,5.333-8.777,8.482C82.942,227.526,82.64,227.657,82.336,227.657z"/>
		</g>
		<g>
			<path style="fill:#849354;" d="M83.037,216.063c-0.339,0-0.672-0.163-0.875-0.467c-1.218-1.817-2.694-3.439-4.388-4.819
				c-0.451-0.367-0.518-1.03-0.151-1.481c0.368-0.45,1.031-0.518,1.481-0.151c1.855,1.513,3.473,3.289,4.807,5.279
				c0.324,0.483,0.195,1.137-0.288,1.46C83.442,216.005,83.238,216.063,83.037,216.063z"/>
		</g>
		<g>
			<path style="fill:#849354;" d="M100.092,263.66c-0.13,0-0.261-0.024-0.39-0.075c-0.539-0.215-0.803-0.827-0.587-1.367
				l3.686-9.239c0.215-0.539,0.826-0.806,1.367-0.588c0.54,0.215,0.803,0.827,0.587,1.367l-3.686,9.239
				C100.906,263.41,100.51,263.66,100.092,263.66z"/>
		</g>
		<g>
			<path style="fill:#849354;" d="M117.578,260.961c-3.887,0-7.787-0.386-11.597-1.151c-0.57-0.114-0.939-0.669-0.825-1.238
				c0.114-0.57,0.667-0.942,1.239-0.825c3.741,0.75,7.564,1.117,11.391,1.11c0.002,0,0.003,0,0.004,0c0.58,0,1.05,0.469,1.052,1.048
				c0.002,0.582-0.467,1.054-1.048,1.056C117.722,260.961,117.65,260.961,117.578,260.961z"/>
		</g>
		<g>
			<path style="fill:#849354;" d="M113.109,253.514c-0.118,0-0.237-0.02-0.354-0.062c-0.548-0.195-0.833-0.797-0.638-1.344
				l3.361-9.418c0.196-0.548,0.801-0.833,1.345-0.637c0.548,0.195,0.833,0.796,0.638,1.344l-3.361,9.418
				C113.946,253.245,113.541,253.514,113.109,253.514z"/>
		</g>
		<g>
			<path style="fill:#849354;" d="M127.488,251.137c-0.099,0-0.2-0.013-0.3-0.043c-2.504-0.744-5.085-1.116-7.699-1.087
				c-0.003,0-0.006,0-0.009,0c-0.577,0-1.048-0.466-1.052-1.043c-0.005-0.582,0.463-1.057,1.044-1.062
				c2.82-0.041,5.612,0.371,8.316,1.174c0.557,0.165,0.875,0.751,0.709,1.308C128.361,250.841,127.942,251.137,127.488,251.137z"/>
		</g>
		<g>
			<path style="fill:#849354;" d="M95.778,294.973c-0.529,0-0.986-0.399-1.045-0.937c-0.369-3.362-1.517-6.65-3.32-9.512
				c-0.31-0.492-0.162-1.142,0.329-1.451c0.493-0.31,1.141-0.163,1.452,0.329c1.972,3.129,3.227,6.727,3.631,10.404
				c0.063,0.578-0.354,1.098-0.931,1.161C95.856,294.971,95.817,294.973,95.778,294.973z"/>
		</g>
		<g>
			<path style="fill:#849354;" d="M99.941,287.638c-0.553,0-1.017-0.432-1.049-0.99c-0.035-0.581,0.408-1.079,0.988-1.113
				c3.045-0.181,6.064-0.72,8.975-1.606c0.555-0.166,1.144,0.145,1.313,0.701c0.17,0.556-0.144,1.144-0.7,1.313
				c-3.069,0.933-6.253,1.503-9.463,1.693C99.983,287.637,99.962,287.638,99.941,287.638z"/>
		</g>
		<g>
			<path style="fill:#849354;" d="M109.548,300.046c-0.448,0-0.863-0.288-1.004-0.738l-2.056-6.552
				c-0.174-0.554,0.135-1.145,0.689-1.319c0.555-0.174,1.146,0.136,1.319,0.69l2.055,6.552c0.174,0.554-0.135,1.145-0.689,1.319
				C109.759,300.03,109.652,300.046,109.548,300.046z"/>
		</g>
		<g>
			<path style="fill:#849354;" d="M113.25,297.256c-0.421,0-0.82-0.255-0.981-0.672c-0.21-0.542,0.059-1.151,0.601-1.362
				c1.415-0.549,2.966-0.813,4.479-0.753c0.581,0.021,1.034,0.509,1.013,1.089c-0.021,0.582-0.475,1.068-1.09,1.013
				c-1.232-0.049-2.491,0.167-3.641,0.613C113.506,297.234,113.377,297.256,113.25,297.256z"/>
		</g>
		<g>
			<path style="fill:#849354;" d="M47.809,295.828c-0.002,0-0.005,0-0.008,0c-3.082-0.024-6.196-0.197-9.255-0.514
				c-0.578-0.061-0.998-0.577-0.938-1.156c0.06-0.578,0.579-0.985,1.155-0.938c2.993,0.311,6.04,0.48,9.055,0.504
				c0.581,0.004,1.049,0.479,1.044,1.061C48.856,295.362,48.386,295.828,47.809,295.828z"/>
		</g>
		<g>
			<path style="fill:#849354;" d="M51.311,302.988c-0.151,0-0.303-0.032-0.448-0.101c-0.526-0.247-0.752-0.875-0.504-1.4l5.7-12.107
				c0.248-0.527,0.875-0.752,1.4-0.504c0.526,0.247,0.752,0.875,0.504,1.4l-5.7,12.107
				C52.084,302.765,51.706,302.988,51.311,302.988z"/>
		</g>
		<g>
			<path style="fill:#849354;" d="M52.891,285.631c-0.491,0-0.931-0.345-1.031-0.846c-0.114-0.57,0.255-1.124,0.825-1.238
				c4.765-0.954,9.606-1,14.385-0.144c0.572,0.103,0.953,0.65,0.85,1.222c-0.103,0.571-0.654,0.954-1.222,0.85
				c-4.455-0.799-9.158-0.752-13.6,0.136C53.029,285.625,52.959,285.631,52.891,285.631z"/>
		</g>
		<g>
			<path style="fill:#849354;" d="M67.058,294.69c-0.195,0-0.392-0.053-0.568-0.167c-0.489-0.314-0.63-0.965-0.316-1.454
				c2.286-3.557,4.38-7.292,6.224-11.099c0.253-0.523,0.884-0.74,1.405-0.489c0.523,0.254,0.742,0.883,0.489,1.406
				c-1.88,3.884-4.016,7.693-6.347,11.321C67.743,294.52,67.404,294.69,67.058,294.69z"/>
		</g>
		<g>
			<path style="fill:#849354;" d="M47.334,248.841c-0.049,0-0.098-0.003-0.147-0.01c-3.164-0.442-6.223-1.855-8.613-3.979
				c-0.434-0.385-0.473-1.051-0.087-1.485c0.387-0.435,1.05-0.475,1.486-0.087c2.082,1.851,4.748,3.082,7.505,3.467
				c0.576,0.08,0.977,0.613,0.897,1.188C48.301,248.46,47.85,248.841,47.334,248.841z"/>
		</g>
		<g>
			<path style="fill:#849354;" d="M53.624,253.464c-0.035,0-0.069-0.002-0.104-0.005c-0.579-0.057-1.001-0.571-0.944-1.15
				c0.456-4.636-0.089-9.418-1.576-13.83c-0.186-0.551,0.111-1.148,0.661-1.333c0.549-0.189,1.148,0.109,1.334,0.661
				c1.582,4.692,2.161,9.778,1.676,14.708C54.617,253.059,54.159,253.464,53.624,253.464z"/>
		</g>
		<g>
			<path style="fill:#849354;" d="M55.722,262.393c-4.172,0-8.346-0.761-12.238-2.247c-0.543-0.208-0.816-0.816-0.608-1.359
				c0.207-0.543,0.814-0.818,1.358-0.608c4.625,1.766,9.674,2.44,14.606,1.957c0.24-0.024,0.358-0.056,0.413-0.076
				c0.282-0.453,0.867-0.634,1.358-0.391c0.522,0.255,0.738,0.886,0.482,1.408c-0.489,0.998-1.66,1.114-2.045,1.153
				C57.944,262.34,56.832,262.393,55.722,262.393z"/>
		</g>
		<g>
			<path style="fill:#849354;" d="M66.808,266.009c-0.006,0-0.012,0-0.019,0c-0.581-0.01-1.044-0.489-1.034-1.071
				c0.069-3.971-0.672-8.019-2.142-11.708c-0.215-0.54,0.048-1.152,0.588-1.367c0.54-0.218,1.152,0.048,1.367,0.588
				c1.573,3.945,2.366,8.275,2.292,12.524C67.85,265.549,67.38,266.009,66.808,266.009z"/>
		</g>
		<g>
			<path style="fill:#849354;" d="M61.645,272.939c-0.37,0-0.739-0.009-1.107-0.028c-0.58-0.03-1.027-0.525-0.997-1.105
				c0.03-0.581,0.531-1.013,1.105-0.998c3.803,0.197,7.733-0.731,11.05-2.607c0.506-0.285,1.148-0.109,1.434,0.398
				c0.286,0.506,0.108,1.148-0.398,1.434C69.392,271.922,65.495,272.939,61.645,272.939z"/>
		</g>
		<g>
			<path style="fill:#849354;" d="M100.006,270.122c-2.37,0-4.741-0.3-7.043-0.899c-0.563-0.147-0.9-0.722-0.753-1.284
				c0.147-0.562,0.717-0.9,1.284-0.753c4.201,1.093,8.647,1.111,12.857,0.043c0.562-0.141,1.136,0.199,1.278,0.763
				c0.143,0.563-0.198,1.136-0.762,1.279C104.621,269.838,102.313,270.122,100.006,270.122z"/>
		</g>
	</g>
	<g>
		<g>
			<path style="fill:#516436;" d="M292.475,305.98c0,0-37.099-15.431-33.488-25.608c3.612-10.178,10.178-2.626,13.789-8.536
				c3.611-5.91-17.729-13.461-12.804-22.653c4.925-9.193,11.491,1.97,14.446-2.626c2.955-4.596-12.476-11.819-7.551-18.714
				c4.925-6.895,11.491,3.283,14.446-0.657c2.955-3.94-11.819-6.566-5.581-15.102c6.238-8.536,9.849,2.298,13.132,0.985
				c3.283-1.313-5.253-20.684,9.849-19.699c15.102,0.985,3.611,17.072,6.895,21.012c3.283,3.94,10.834-9.521,17.072-1.97
				c6.238,7.551-12.804,14.117-9.193,20.027c3.611,5.91,12.148-7.88,16.416,1.313c4.268,9.193-15.759,12.476-12.804,19.042
				c2.955,6.566,10.506,1.642,11.491,9.521c0.985,7.88-18.057,3.94-16.416,12.476s14.117-3.283,16.744,4.925
				S292.475,305.98,292.475,305.98z"/>
		</g>
		<g>
			<path style="fill:#38482C;" d="M328.917,279.715c-2.626-8.208-15.102,3.611-16.744-4.925
				c-1.641-8.536,17.401-4.596,16.416-12.476c-0.985-7.88-8.536-2.955-11.491-9.521c-2.955-6.566,17.072-9.849,12.804-19.042
				c-4.268-9.193-12.804,4.596-16.415-1.313c-3.612-5.909,15.431-12.476,9.193-20.027c-6.238-7.551-13.789,5.91-17.072,1.97
				c-3.283-3.94,8.208-20.027-6.895-21.012c-0.101-0.006-0.189-0.002-0.288-0.007c-2.107,17.399-8.518,75.026-5.95,112.618
				C292.475,305.98,331.544,287.923,328.917,279.715z"/>
		</g>
		<g>
			<path style="fill:#849354;" d="M293.357,312.409c-0.538,0-0.997-0.41-1.047-0.956c-4.066-44.01,4.503-109.854,4.59-110.513
				c0.076-0.576,0.587-0.984,1.181-0.905c0.577,0.076,0.981,0.604,0.905,1.181c-0.086,0.658-8.625,66.271-4.579,110.045
				c0.053,0.579-0.373,1.091-0.952,1.145C293.422,312.409,293.389,312.409,293.357,312.409z"/>
		</g>
		<g>
			<path style="fill:#849354;" d="M294.322,240.741c-0.171,0-0.343-0.041-0.503-0.128c-0.511-0.279-0.699-0.918-0.42-1.428
				c8.738-16.019,22.528-23.52,23.11-23.832c0.513-0.273,1.15-0.081,1.424,0.432c0.273,0.512,0.08,1.15-0.432,1.424
				c-0.137,0.073-13.831,7.538-22.255,22.983C295.056,240.542,294.695,240.741,294.322,240.741z"/>
		</g>
		<g>
			<path style="fill:#849354;" d="M294.324,230.605c-0.369,0-0.728-0.194-0.92-0.54c-5.564-9.967-13.037-14.274-13.112-14.316
				c-0.506-0.286-0.685-0.928-0.399-1.434s0.925-0.687,1.432-0.4c0.326,0.183,8.047,4.609,13.916,15.124
				c0.284,0.508,0.102,1.148-0.406,1.432C294.674,230.562,294.498,230.605,294.324,230.605z"/>
		</g>
		<g>
			<path style="fill:#849354;" d="M292.635,255.701c-0.395,0-0.772-0.222-0.952-0.602c-6.309-13.317-20.718-22.882-20.863-22.978
				c-0.485-0.319-0.621-0.971-0.302-1.457c0.32-0.484,0.971-0.621,1.457-0.302c0.61,0.401,15.043,9.975,21.609,23.837
				c0.25,0.525,0.025,1.152-0.5,1.401C292.939,255.668,292.786,255.701,292.635,255.701z"/>
		</g>
		<g>
			<path style="fill:#849354;" d="M292.634,265.353c-0.135,0-0.271-0.026-0.403-0.08c-0.536-0.222-0.791-0.838-0.569-1.375
				c7.078-17.085,31.138-27.86,32.159-28.31c0.532-0.233,1.154,0.008,1.387,0.538c0.234,0.531-0.006,1.152-0.539,1.387
				c-0.241,0.107-24.311,10.89-31.064,27.19C293.438,265.109,293.046,265.353,292.634,265.353z"/>
		</g>
		<g>
			<path style="fill:#849354;" d="M291.911,276.695c-0.366,0-0.72-0.19-0.915-0.53c-8.402-14.703-25.862-22.161-26.038-22.235
				c-0.535-0.224-0.788-0.841-0.563-1.377c0.224-0.534,0.836-0.793,1.377-0.563c0.742,0.31,18.288,7.794,27.051,23.131
				c0.289,0.505,0.113,1.147-0.392,1.436C292.268,276.651,292.088,276.695,291.911,276.695z"/>
		</g>
		<g>
			<path style="fill:#849354;" d="M292.634,285.141c-0.125,0-0.253-0.023-0.377-0.07c-0.543-0.209-0.814-0.817-0.605-1.36
				c8.114-21.144,30.622-22.62,30.848-22.632c0.577-0.067,1.076,0.412,1.108,0.992c0.032,0.58-0.412,1.076-0.992,1.109
				c-0.213,0.012-21.382,1.437-28.999,21.286C293.456,284.884,293.056,285.141,292.634,285.141z"/>
		</g>
		<g>
			<path style="fill:#849354;" d="M292.393,300.586c-0.375,0-0.738-0.201-0.928-0.555c-6.707-12.489-25.466-17.77-25.654-17.823
				c-0.561-0.154-0.89-0.733-0.736-1.293c0.154-0.561,0.74-0.893,1.293-0.736c0.807,0.221,19.822,5.581,26.951,18.857
				c0.275,0.512,0.083,1.15-0.43,1.424C292.731,300.546,292.561,300.586,292.393,300.586z"/>
		</g>
		<g>
			<path style="fill:#849354;" d="M293.116,302.999c-0.151,0-0.305-0.033-0.451-0.102c-0.524-0.25-0.748-0.878-0.498-1.403
				c7.125-14.987,29.415-21.066,30.361-21.318c0.562-0.147,1.138,0.185,1.287,0.747c0.15,0.561-0.184,1.138-0.746,1.288
				c-0.222,0.059-22.296,6.084-29,20.187C293.887,302.777,293.509,302.999,293.116,302.999z"/>
		</g>
	</g>
	<g>
		<g>
			<path style="fill:#516436;" d="M192.194,459.073c0,0-67.175-52.781-0.356-113.492c0.118-0.107,0.237-0.215,0.356-0.323
				C192.194,345.258,261.358,403.041,192.194,459.073z"/>
		</g>
		<g>
			<path style="fill:#3A4B2D;" d="M192.194,345.258"/>
		</g>
		<g>
			<path style="fill:#38482C;" d="M192.194,459.073c69.164-56.032,0-113.815,0-113.815S202.301,422.352,192.194,459.073z"/>
		</g>
		<g>
			<path style="fill:#849354;" d="M191.258,465.315c-0.083,0-0.166-0.009-0.25-0.03c-0.565-0.138-0.911-0.707-0.773-1.272
				c9.499-38.943,2.7-108.502,2.63-109.2c-0.058-0.579,0.364-1.095,0.942-1.152c0.581-0.045,1.094,0.365,1.152,0.942
				c0.07,0.702,6.905,70.614-2.679,109.909C192.162,464.993,191.732,465.315,191.258,465.315z"/>
		</g>
		<g>
			<path style="fill:#849354;" d="M195.094,376.523c-0.412,0-0.803-0.243-0.972-0.646c-2.267-5.425-5.856-10.276-10.381-14.029
				c-0.448-0.371-0.509-1.034-0.138-1.482c0.372-0.446,1.036-0.509,1.482-0.138c4.786,3.969,8.582,9.099,10.98,14.837
				c0.224,0.536-0.029,1.153-0.565,1.377C195.367,376.497,195.229,376.523,195.094,376.523z"/>
		</g>
		<g>
			<path style="fill:#849354;" d="M196.433,393.659c-0.03,0-0.06-0.001-0.09-0.004c-0.579-0.048-1.009-0.558-0.96-1.138
				c0.191-2.243,1.292-4.231,2.311-5.918c2.832-4.691,6.196-9.071,9.999-13.02c0.404-0.418,1.069-0.432,1.488-0.029
				c0.419,0.404,0.432,1.07,0.028,1.488c-3.694,3.837-6.962,8.092-9.713,12.648c-0.895,1.484-1.863,3.217-2.015,5.009
				C197.434,393.245,196.974,393.659,196.433,393.659z"/>
		</g>
		<g>
			<path style="fill:#849354;" d="M196.272,409.886c-0.438,0-0.848-0.275-0.996-0.714c-3.772-11.115-12.385-19.661-21.633-28.158
				c-0.428-0.394-0.456-1.059-0.063-1.487c0.394-0.428,1.059-0.456,1.487-0.063c9.457,8.688,18.27,17.448,22.202,29.032
				c0.187,0.55-0.108,1.148-0.658,1.335C196.498,409.868,196.384,409.886,196.272,409.886z"/>
		</g>
		<g>
			<path style="fill:#849354;" d="M196.022,422.328c-0.172,0-0.347-0.042-0.509-0.132c-0.508-0.282-0.693-0.922-0.411-1.43
				c4.949-8.938,12.026-16.703,20.467-22.455c0.482-0.327,1.136-0.202,1.462,0.276c0.327,0.481,0.203,1.136-0.277,1.463
				c-8.17,5.568-15.021,13.084-19.81,21.735C196.751,422.133,196.392,422.328,196.022,422.328z"/>
		</g>
		<g>
			<path style="fill:#849354;" d="M194.559,442.693c-0.486,0-0.922-0.338-1.028-0.831c-3.518-16.404-14.963-30.179-24.541-40.346
				c-0.398-0.423-0.379-1.089,0.045-1.487c0.422-0.4,1.088-0.379,1.488,0.044c9.765,10.367,21.44,24.434,25.066,41.347
				c0.122,0.568-0.24,1.128-0.808,1.25C194.706,442.686,194.632,442.693,194.559,442.693z"/>
		</g>
		<g>
			<path style="fill:#849354;" d="M193.769,453.271c-0.075,0-0.151-0.008-0.227-0.025c-0.568-0.124-0.926-0.686-0.802-1.254
				c0.911-4.143,3.313-7.681,5.905-11.241c4.615-6.338,9.516-12.599,14.567-18.608c0.374-0.445,1.038-0.501,1.483-0.128
				c0.445,0.374,0.502,1.038,0.129,1.483c-5.02,5.971-9.891,12.193-14.477,18.493c-2.455,3.372-4.727,6.709-5.551,10.454
				C194.688,452.936,194.252,453.271,193.769,453.271z"/>
		</g>
	</g>
	<g>
		<g>
			<path style="fill:#516436;" d="M420.592,342.163c0,0-54.5,38.084-52.202,83.391c2.298,45.307,36.114,37.756,40.382,24.952
				c0,0,25.267,18.819,37.099-2.298C472.574,400.553,421.576,381.889,420.592,342.163z"/>
		</g>
		<g>
			<path style="fill:#38482C;" d="M445.872,448.208c26.702-47.655-24.295-66.319-25.28-106.045c0,0-21.964,33.539-11.819,108.343
				C408.772,450.506,434.039,469.326,445.872,448.208z"/>
		</g>
		<g>
			<path style="fill:#849354;" d="M411.274,461.53c-0.484,0-0.92-0.336-1.028-0.828c-13.426-61.616,4.452-108.252,4.634-108.716
				c0.212-0.542,0.823-0.807,1.364-0.595c0.541,0.212,0.808,0.823,0.595,1.364c-0.18,0.458-17.819,46.538-4.535,107.499
				c0.123,0.568-0.236,1.128-0.805,1.253C411.424,461.523,411.348,461.53,411.274,461.53z"/>
		</g>
		<g>
			<path style="fill:#849354;" d="M411.275,367.661c-0.269,0-0.539-0.103-0.744-0.308c-3.596-3.597-4.373-10.006-4.404-10.277
				c-0.067-0.577,0.346-1.098,0.924-1.165c0.585-0.061,1.099,0.346,1.166,0.924c0.007,0.059,0.729,5.957,3.802,9.03
				c0.411,0.411,0.411,1.077,0,1.488C411.814,367.558,411.545,367.661,411.275,367.661z"/>
		</g>
		<g>
			<path style="fill:#849354;" d="M407.172,388.654c-0.235,0-0.472-0.078-0.668-0.241c-8.412-6.927-10.19-17.101-10.262-17.531
				c-0.096-0.573,0.291-1.114,0.864-1.21c0.568-0.101,1.115,0.291,1.212,0.863c0.016,0.098,1.737,9.84,9.524,16.253
				c0.449,0.369,0.513,1.032,0.143,1.481C407.777,388.523,407.476,388.654,407.172,388.654z"/>
		</g>
		<g>
			<path style="fill:#849354;" d="M405.965,413.992c-0.174,0-0.349-0.043-0.512-0.134c-12.624-7.041-23.09-22.602-23.529-23.26
				c-0.323-0.483-0.192-1.137,0.292-1.459c0.481-0.323,1.138-0.192,1.459,0.292c0.105,0.157,10.628,15.799,22.803,22.59
				c0.508,0.283,0.69,0.924,0.406,1.432C406.693,413.798,406.334,413.992,405.965,413.992z"/>
		</g>
		<g>
			<path style="fill:#849354;" d="M406.209,434.745c-0.053,0-0.108-0.004-0.162-0.012c-17.252-2.673-30.408-14.718-30.959-15.23
				c-0.426-0.396-0.451-1.061-0.056-1.487c0.396-0.428,1.061-0.452,1.487-0.057c0.13,0.121,13.25,12.121,29.851,14.693
				c0.574,0.089,0.968,0.627,0.879,1.201C407.168,434.374,406.72,434.745,406.209,434.745z"/>
		</g>
		<g>
			<path style="fill:#849354;" d="M413.447,363.075c-0.453,0-0.871-0.294-1.008-0.75c-0.166-0.557,0.149-1.143,0.706-1.31
				c1.813-0.544,4.883-2.833,5.912-3.67c0.452-0.365,1.114-0.297,1.481,0.153c0.366,0.451,0.298,1.114-0.153,1.481
				c-0.164,0.134-4.053,3.277-6.636,4.052C413.648,363.061,413.547,363.075,413.447,363.075z"/>
		</g>
		<g>
			<path style="fill:#849354;" d="M409.344,382.139c-0.521,0-0.973-0.386-1.042-0.916c-0.076-0.576,0.331-1.105,0.906-1.18
				c5.177-0.676,12.655-6.937,12.73-7.001c0.445-0.375,1.109-0.317,1.483,0.126c0.374,0.444,0.318,1.108-0.126,1.483
				c-0.325,0.273-8.024,6.722-13.814,7.478C409.436,382.136,409.39,382.139,409.344,382.139z"/>
		</g>
		<g>
			<path style="fill:#849354;" d="M407.172,405.063c-0.513,0-0.963-0.375-1.04-0.898c-0.085-0.574,0.312-1.11,0.887-1.195
				c12.544-1.858,24.651-13.125,24.771-13.239c0.423-0.398,1.088-0.379,1.488,0.045c0.398,0.423,0.378,1.089-0.045,1.488
				c-0.513,0.482-12.699,11.832-25.906,13.788C407.275,405.059,407.223,405.063,407.172,405.063z"/>
		</g>
		<g>
			<path style="fill:#849354;" d="M407.172,427.746c-0.506,0-0.952-0.365-1.037-0.88c-0.096-0.573,0.292-1.115,0.865-1.211
				c21.079-3.513,34.252-17.862,34.382-18.007c0.389-0.433,1.054-0.465,1.486-0.076c0.432,0.389,0.466,1.055,0.077,1.486
				c-0.553,0.611-13.769,15.034-35.6,18.673C407.287,427.742,407.229,427.746,407.172,427.746z"/>
		</g>
		<g>
			<path style="fill:#849354;" d="M408.862,446.81c-0.575,0-1.044-0.461-1.052-1.038c-0.008-0.581,0.456-1.058,1.038-1.067
				c16.59-0.233,35.4-13.896,35.588-14.034c0.47-0.343,1.128-0.243,1.471,0.226c0.344,0.469,0.244,1.127-0.225,1.471
				c-0.789,0.58-19.533,14.199-36.804,14.443C408.873,446.81,408.867,446.81,408.862,446.81z"/>
		</g>
	</g>
</g>
</svg>
