<?xml version="1.0" encoding="utf-8"?>
<!-- Generator: Adobe Illustrator 27.5.0, SVG Export Plug-In . SVG Version: 6.00 Build 0)  -->
<svg version="1.1" id="Layer_1" xmlns="http://www.w3.org/2000/svg" xmlns:xlink="http://www.w3.org/1999/xlink" x="0px" y="0px"
	 viewBox="0 0 450 450" style="enable-background:new 0 0 450 450;" xml:space="preserve">
<rect style="fill-rule:evenodd;clip-rule:evenodd;fill:#FFFFFF;" width="450" height="450"/>
<path d="M130.583,23.296c1.111-2.979,12.177-8.035,12.479-4.523v0.281c-0.039,0.625-0.36,1.47-1.049,2.582
	c-8.586,13.858-20.37,22.547-31.381,28.316v-4.295C119.012,40.455,126.649,33.328,130.583,23.296L130.583,23.296z M110.632,61.571
	c12.706-3.403,28.848-6.177,30.606,2.073c1.45,6.803-16.732,7.874-30.606,7.395v-3.282c4.85,0.119,8.055-0.502,9.694-1.411
	c0.585-0.325-0.963-3.85-8.776-2.672c-0.307,0.046-0.612,0.097-0.918,0.151V61.571L110.632,61.571z M110.632,88.63
	c0.738,0.507,1.358,1.041,1.833,1.606c1.331,1.374,0.309,2.256-1.833,2.776V88.63z M110.632,49.952
	c-11.194,5.865-21.59,8.712-27.012,10.898c4.533,2.177,8.611,3.507,13.499,4.771c2.685-0.832,7.745-2.505,13.512-4.05v2.254
	c-3.317,0.587-6.586,1.628-9.806,2.941c3.802,0.62,7.066,0.923,9.806,0.99v3.282c-7.324-0.253-13.449-0.937-14.849-1.437
	L77.188,80.35c6.148,0.896,25.945,3.128,33.444,8.28v4.381c-5.165,1.254-16.852,0.406-17.791-0.706
	c-5.868-6.979-14.686-8.673-21.353-9.383c-4.428,2.582-9.79,4.229-15.337,5.079v-3.277c3.298-0.421,6.561-1.417,9.113-2.43
	c-0.251-0.021-4.552-0.486-9.113-0.753v-3.673c3.467,0.136,7.076,0.489,10.621,1.104l4.226,0.204
	c1.088-0.197,17.165-9.979,19.73-11.342c-5.043-1.532-7.519-2.605-12.205-4.896c-5.6,1.896-13.793,3.56-22.372,4.551v-3.127
	c5.345-0.633,11.369-2.141,17.624-4.028c-5.985-2.908-11.622-5.333-17.624-6.23v-3.252c8.576,1.024,15.788,4.092,23.466,7.861
	c6.658-2.42,19.534-5.931,31.015-13.057V49.952z M56.151,88.002c-2.608,0.4-5.259,0.624-7.872,0.687
	c-21.053,0.67-30.504-9.235,0.525-10.789c2.316-0.116,4.793-0.132,7.347-0.032v3.673c-1.67-0.098-3.375-0.17-4.928-0.183
	c-9.014-0.078-5.574,2.88-0.261,3.467c1.671,0.184,3.435,0.123,5.189-0.101V88.002L56.151,88.002z M56.151,67.489
	c-15.65,1.807-32.586,1.372-37.399-3.994c-0.621-0.691-0.949-1.374-1.027-2.042v-0.609c0.696-6.311,23.5-11.196,36.321-10.199
	c0.711,0.056,1.413,0.126,2.106,0.208v3.252c-2.243-0.335-4.537-0.458-6.92-0.312c-14.488,0.888-13.997,9.898-0.182,10.827
	c2.182,0.146,4.565,0.043,7.102-0.257V67.489z"/>
<path d="M229.227,78.157c26.129-5.217,51.777-12.644,69.615-21.563c1.289-0.774,3.338,1.092,4.176,3.479
	c0.834,2.385,0.463,5.256-0.666,5.767c-18.449,9.225-45.621,15.654-73.125,19.49V78.157L229.227,78.157z M229.227,89.269
	c27.986-3.719,55.299-10.049,73.424-18.662c0.811-0.42,0.738-2.627-0.178-2.266c-17.742,8.866-45.096,15.583-73.246,19.585V89.269z
	 M155.696,86.461c19.864,0.025,46.947-2.996,73.531-8.304v7.173c-26.777,3.734-53.868,5.01-73.531,4.01
	c-0.404-0.022-0.452-0.739-0.45-1.455C155.249,87.172,155.302,86.461,155.696,86.461L155.696,86.461z M229.227,87.925
	c-27.909,3.968-56.599,5.267-77.474,3.34c-0.629-0.055-0.733,0.927-0.078,0.983c20.823,1.848,49.525,0.744,77.552-2.979V87.925z"/>
<path style="fill-rule:evenodd;clip-rule:evenodd;" d="M429.816,21.563c-0.029,1.237,0.326,3.425-2.871,3.925
	c-8.914,1.394-37.283,0.955-50.822,1.219c-22.254,0.433-45.02-0.766-66.717,4.652c-3.988,0.995,0.256,11.307,1.93,14.637
	c-0.266-2.905,3.598-3.167,8.111-4.179c26.109-5.859,75.799-3.72,104.881-3.72c3.52,0,5.721-0.436,5.914-2.969
	C430.463,32.237,430.293,22.001,429.816,21.563z"/>
<path d="M159.391,67.237c18.063-38.368,81.343-50.958,121.585-40.081l-2.983,9.575c-33.092-7.178-92.033-10.627-117.773,30.675
	L159.391,67.237z"/>
<path d="M417.93,88.981c4.041-1.998,8.029-2.972,11.65-1.767c4.504,1.498,5.357,6.858-0.57,10.343
	c-2.785,1.637-6.668,3.411-11.08,5.137v-5.359c6.535-2.46,13.045-5.478,11.961-7.308c-1.617-2.728-6.775-0.446-11.961,2.799V88.981z
	 M282.682,97.315c29.027,14.683,89.065,13.057,114.182,6.046c5.85-3.394,13.547-10.662,21.066-14.38v3.845
	c-5.023,3.145-10.074,7.193-11.959,8.474c1.213-0.302,6.596-1.945,11.959-3.965v5.359c-8.646,3.384-19.336,6.588-27.824,8.243
	c-8.047,5.397-20.344,10.364-33.787,12.419l-0.092-0.556c12.488-2.72,20.232-6.349,28.34-10.753
	c-32.99,4.833-79.215,0.249-102.478-13.62L282.682,97.315z"/>
<path style="fill-rule:evenodd;clip-rule:evenodd;" d="M320.73,84.411c34.541-2.903,60.395-11.817,90.982-29.843l1.777,16.072
	c-30.352,12.45-69.02,17.806-92.205,15.355L320.73,84.411z"/>
<path style="fill-rule:evenodd;clip-rule:evenodd;" d="M62.994,115.436c14.791-0.402,31.811,0.742,46.092,0.374
	c12.421-0.32,27.646-1.595,29.431-11.19c1.099,1.624,2.652,7.028,2.724,12.325v0.717c-0.059,4.755-1.39,9.28-5.407,10.734
	c-17.022,6.162-44.41-0.366-61.52-3.865c-2.905-0.594-6.889-1.385-11.319-1.998V115.436L62.994,115.436z M62.994,128.635
	c0.97,0.253,1.942,0.528,2.916,0.83c5.87,1.818,13.422,5.162,19.246,5.833c7.35,0.846,9.443-1.204,12.247-3.888
	c-6.866,0-20.8-4.456-34.409-6.742V128.635z M27.665,134.774c-0.004-0.035-0.005-0.067-0.009-0.102v-4.074
	c1.493-11.665,16.626-14.654,35.337-15.163v7.097c-6.734-0.932-14.497-1.451-21.052-0.238
	C34.012,123.762,27.754,128.402,27.665,134.774L27.665,134.774z M62.994,124.668c-15.652-2.628-30.874-2.385-34.41,10.824
	c3.7-8.652,18.618-10.977,34.41-6.857V124.668z"/>
<path style="fill-rule:evenodd;clip-rule:evenodd;" d="M223.552,194.429c10.036-12.621-16.848-12.164-16.382-14.658
	c1.233-6.605,15.016-12.819,25.579-10.248c-1.686-7.254-21.779-10.829-32.908-6.565l-7.174-9.607
	c16.995-20.148,53.061-18.291,73.617-4.441c1.059-18.677-69.475-33.065-104.329-8.989l-1.345-1.105
	c24.041-19.611,54.869-20.642,73.959-19.447c15.73,0.984,45.705,8.747,43.52,23.101l-9.27,10.572
	c-14.721-6.495-43.58-11.609-67.685,6.412c8.006-3.687,37.064-10.238,39.8,4.882l-6.313,7.814
	c-8.654-2.606-23.026,3.152-14.087,7.621c2.967,1.483,5.789,3.573,7.33,6.036C229.594,188.577,226.695,191.984,223.552,194.429z"/>
<path style="fill-rule:evenodd;clip-rule:evenodd;" d="M377.709,187.19c-5.668-18.782,14.48-14.975,20.715-10.89l12.166-16.568
	c-22.879-28.599-93.682-11.735-118.254,7.923l0.445,0.736c29-18.705,91.785-13.753,104.604-1.323
	C380.277,158.58,367.701,176.636,377.709,187.19z"/>
<path style="fill-rule:evenodd;clip-rule:evenodd;" d="M120.277,181.924c8.984,0.127,16.898,1.959,18.169,8.648
	c1.127-1.792,2.721-7.514,2.794-12.956v-0.748c-0.063-4.866-1.43-9.35-5.547-10.379c-4.543-1.135-9.807-1.306-15.416-0.843V181.924
	L120.277,181.924z M120.277,188.782v-4.496c7.419,0.439,14.866,2.175,15.735,6.255C133.562,187.366,126.548,187.336,120.277,188.782
	z M24.727,172.391c-0.004,0.035-0.005,0.067-0.009,0.103v4.185c2.745,21.115,50.352,8.666,83.536,5.8
	c3.897-0.337,8.064-0.61,12.023-0.555v-16.277c-15.953,1.316-34.709,7.774-47.696,11.886c-7.509,2.378-22.059,6.831-33.208,6.018
	C31.237,182.958,24.818,178.917,24.727,172.391L24.727,172.391z M120.277,184.286v4.496c-6.083,1.402-11.466,4.19-11.305,6.846
	c-0.688-3.753-6.5-8.85-3.771-10.175C107.11,184.528,113.683,183.896,120.277,184.286z"/>
<path d="M86.298,226.494c-16.094,0.904-29.909-4.518-41.692-4.202c-10.899,0.293-12.783,4.91-2.376,9.618
	c12.221,5.53,29.665,1.886,48.196-3.744c27.978-8.498,58.712-21.268,79.878-11.795c9.194,4.115,8.082,9.789,0.187,14.177
	c-24.977,13.885-59.489,2.151-79.559,4.684l0.013-1.441c16.758-2.352,57.207,8.229,69.394-8.519
	c4.456-6.123-7.483-8.748-25.88-6.001c-13.849,2.067-28.945,6.439-43.776,10.893c-16.809,5.048-33.286,9.968-47.388,7.456
	c-30.77-5.48-30.733-23.23,2.064-19.243c11.96,1.454,24.981,8.056,40.23,7.312L86.298,226.494z"/>
<path style="fill-rule:evenodd;clip-rule:evenodd;" d="M290.805,238.574c16.344-7.688,16.818-27.833,14.164-38.657
	c-0.195,17.624-71.717,32.361-108.297,14.459C208.066,226.781,268.34,249.142,290.805,238.574z"/>
<path style="fill-rule:evenodd;clip-rule:evenodd;" d="M329.887,232.632c-19.478-42.201,89.897-9.842,96.844-37.661
	c4.479,14.076,7.504,30.049-15.574,32.61c-23.074,2.562-47.311,0.51-70.508-0.061C337.004,227.432,331.637,227.387,329.887,232.632z
	"/>
<path d="M147.402,265.248c8.559-2.85,23.468-4.308,30.67,0.003l-5.779,8.636c-5.415-2.84-13.066-2.274-17.569-1.408
	c11.2,7.918,6.327,24.144-6.867,26.561c-0.153,0.028-0.303,0.05-0.454,0.075v-4.34c4.644-0.288,9.824-3.734,10.422-8.651
	c0.923-7.585-3.71-10.763-10.422-12.141V265.248z M28.716,291.616c22.505-19.043,80.988-28.838,111.547-24.858
	c4.268,0.557,0.929,0.623,6.807-1.398l0.332-0.111v8.735c-0.27-0.056-0.544-0.107-0.82-0.158
	c-7.002,2.489-17.025,17.804-1.48,20.816c0.734,0.142,1.509,0.183,2.299,0.134v4.34c-17.278,2.828-26.924-14.816-12.244-26.833
	c-27.71-2.168-85.597,3.562-105.361,20.284L28.716,291.616z"/>
<path d="M215.975,266.965c-22.76,1.19-12.253,29.154,11.382,20.049c21.523-8.291,64.887-33.443,86.178-17.475l-6.789,12.172
	c-20.072-15.055-56.943,2.713-77.35,10.573c-22.134,8.526-34.04-7.302-28.426-18.357c2.261-4.452,7.304-7.847,15.345-7.847
	L215.975,266.965z"/>
<path d="M346.426,287.545c3.076-14.331,25.26-6.465,17.469,7.623c-6.662,12.047-22.392,7.475-25.147-2.145
	c-6.767-23.626,33.6-31.182,35.822-7.344c1.395,14.956-11.855,27.858-26.758,24.499c-18.385-4.147-25.666-25.742-10.9-39.352
	c13.783-12.705,31.647-7.726,48.131-6.653c9.443,0.614,36.598,1.299,38.207-13.197l12.244,7.504
	c-2.117,19.071-37.635,13.653-50.805,12.797c-14.818-0.964-32.459-7.638-44.652,4.367c-3.228,3.181-5.244,7.089-5.361,11.598
	c-0.252,9.673,7.664,16.459,15.775,17.716c14.201,2.199,25.527-17.374,12.264-27.135c-7.996-5.885-22.537,1.583-19.314,14.18
	c1.744,6.81,12.879,8.972,17.783,1.897c6.945-10.018-9.69-17.77-13.721-6.374L346.426,287.545z"/>
<path d="M18.384,336.976c29.651-20.529,113.945-23.536,144.738-20.972c14.43,1.201,27.44,11.896,8.607,18.503
	c-9.753,3.421-23.935,6.126-30.461,7.36c-16.147,3.055-37.664,8.623-54.456,16.088c-13.248,5.89-9.73,4.624,3.49,2.083
	c10.772-2.069,23.152-4.449,31.361-4.634c2.518-0.057,4.711,0.118,6.474,0.586c5.554,1.477,5.966,5.599,1.789,8.634
	c-9.319,6.771-21.475,9.788-31.194,15.779c-5.424,3.343-15.603,10.905-1.025,11.266c2.642,0.065,5.24-0.079,6.97,0.148l0.007,0.958
	c-1.559-0.273-27.392,2.854-13.565-10.221c8.335-7.883,20.533-11.386,30.399-16.963c5.577-3.153,8.505-4.726,0.258-4.54
	c-7.652,0.171-19.82,2.511-30.409,4.545c-12.351,2.374-22.761,4.374-24.523,1.132c-3.925-7.22,30.025-18.776,36.738-20.949
	c12.806-4.146,25.648-7.315,37.923-9.731c5.036-0.982,14.798-3.108,22.756-4.773c9.321-1.949,13.095-3.882-1.246-5.076
	c-29.282-2.439-109.373,1.973-137.766,21.63L18.384,336.976z"/>
<path style="fill-rule:evenodd;clip-rule:evenodd;" d="M301.676,333.828c-28,20.721-85.628,33.752-119.338,19.352
	c23.683,2.554,81.936-4.636,112.143-37.179C305.084,304.579,314.869,324.067,301.676,333.828z"/>
<path style="fill-rule:evenodd;clip-rule:evenodd;" d="M390.75,322.377c17.119-1.861,33.938-0.657,46.957,4.904
	c-10.488-1.131-28.195-0.225-46.957,4.247V322.377L390.75,322.377z M390.75,339.013c17.635-6.649,35.41-8.94,45.848-9.281
	c-12.645-2.56-29.508-0.476-45.848,4.182V339.013z M325.594,345.46c15.492-11.462,40.633-20.418,65.156-23.083v9.151
	c-21.035,5.017-43.397,14.521-58.395,30.681c-6.271,6.755-12.236,1.999-12.705-4.739v-1.706
	C319.893,352.224,321.648,348.38,325.594,345.46L325.594,345.46z M390.75,333.913c-15.445,4.402-30.424,11.102-40.938,18.353
	c-10.435,7.197-2.414,17.405,5.92,8.718c9.756-10.17,22.352-17.195,35.018-21.972V333.913z"/>
<path d="M25.803,404.85c1.111,2.354-0.234,10.389-0.963,16.485c-0.44,3.685-1.931,7.47,3.15,6.884
	c2.739-0.315,6.017-1.361,8.877-2.445c23.001-8.718,49.675-21.892,74.102-25.691c14.69-2.286,21.593-1.703,17.657,9.836
	c-1.155,3.385-8.557,10.072-8.557,17.648l-1.323-0.095c0-6.999,4.395-14.134,4.123-15.812c-0.317-1.968-3.011-1.665-13.146-0.022
	c-24.706,4.006-46.734,13.996-70.039,22.861c-7.969,3.031-20.88,8.346-21.887-0.397c-0.73-6.337,6.94-21.932,6.575-29.196
	L25.803,404.85z"/>
<path style="fill-rule:evenodd;clip-rule:evenodd;" d="M274.76,393.015c1.041-4.892,8.596-11.636,14.328-9.983
	c12.76,3.678,4.016,20.526-6.635,23.038c-10.914,2.574-23.27-0.607-28.381-11.082c-15.787,16.774-74.529,32.381-82.243-1.048
	l-1.833-0.262c0,42.298,66.416,32.649,86.172,15.715c5.188,4.573,17.752,4.995,27.572,2.174c19.871-5.708,22.678-34.336,2.711-41.03
	c-11.016-3.692-25.662,3.087-26.879,13.189C263.502,388.352,268.734,391.88,274.76,393.015z"/>
<path style="fill-rule:evenodd;clip-rule:evenodd;" d="M423.852,407.231c-38.479-14.274-101.707-0.776-105.414,15.52
	c-11.527-37.458,102.166-43.521,119.94-26.721L423.852,407.231z"/>
</svg>
